<svg width="78" height="80" viewBox="0 0 78 80" fill="none" xmlns="http://www.w3.org/2000/svg">
<g clip-path="url(#clip0_142_397)">
<path d="M44.5902 80H34.8567C34.4621 80 34.0675 79.6046 34.0675 79.2092V0.790774C34.0675 0.395387 34.4621 0 34.8567 0H44.5902C44.9848 0 45.3794 0.395387 45.3794 0.790774V79.0774C45.511 79.6046 45.1164 80 44.5902 80ZM35.6459 78.2867H43.801V1.71334H35.6459V78.2867Z" fill="#1E1E1E"/>
<path d="M41.1703 79.9999C40.7757 79.9999 40.3811 79.6046 40.3811 79.2092C40.3811 78.1548 39.855 77.6276 39.1973 76.9686C38.4081 76.1779 37.4874 75.3871 37.4874 73.542C37.4874 71.8286 38.4081 70.906 39.1973 70.1153C39.855 69.4563 40.3811 68.9291 40.3811 67.8747C40.3811 66.8204 39.855 66.2932 39.1973 65.6342C38.4081 64.8434 37.4874 64.0527 37.4874 62.2075C37.4874 61.8121 37.882 61.4167 38.2766 61.4167C38.6712 61.4167 39.0658 61.8121 39.0658 62.2075C39.0658 63.2619 39.5919 63.7891 40.2496 64.4481C41.0388 65.2388 41.9595 66.0296 41.9595 67.8747C41.9595 69.5881 41.0388 70.5107 40.2496 71.3014C39.5919 71.9604 39.0658 72.4876 39.0658 73.542C39.0658 74.5963 39.5919 75.1235 40.2496 75.7825C41.0388 76.5733 41.9595 77.364 41.9595 79.2092C41.9595 79.6046 41.6965 79.9999 41.1703 79.9999Z" fill="#1E1E1E"/>
<path d="M39.7235 60.3624C39.4604 60.3624 39.3288 60.2306 39.1973 60.0988C38.9342 59.8352 38.9342 59.308 39.1973 58.9126C39.855 58.2536 40.3811 57.7264 40.3811 56.6721C40.3811 55.6177 39.855 55.0905 39.1973 54.4316C38.4081 53.6408 37.4874 52.85 37.4874 51.0049C37.4874 49.2915 38.4081 48.3689 39.1973 47.5782C39.855 46.9192 40.3811 46.392 40.3811 45.3377C40.3811 44.2833 39.855 43.7561 39.1973 43.0971C38.4081 42.3063 37.4874 41.5156 37.4874 39.6704C37.4874 37.9571 38.4081 37.0345 39.1973 36.2437C39.855 35.5848 40.3811 35.0576 40.3811 34.0032C40.3811 32.9489 39.855 32.4217 39.1973 31.7627C38.4081 30.9719 37.4874 30.1811 37.4874 28.336C37.4874 26.6227 38.4081 25.7001 39.1973 24.9093C39.855 24.2503 40.3811 23.7232 40.3811 22.6688C40.3811 21.6144 39.9865 21.219 39.1973 20.4283C38.8027 20.1647 38.8027 19.6375 39.1973 19.2421C39.4604 18.8467 39.9865 18.8467 40.3811 19.2421C41.0388 19.9011 42.0911 20.8236 42.0911 22.6688C42.0911 24.3821 41.1703 25.3047 40.3811 26.0955C39.7235 26.7545 39.1973 27.2816 39.1973 28.336C39.1973 29.3904 39.7235 29.9176 40.3811 30.5765C41.1703 31.3673 42.0911 32.1581 42.0911 34.0032C42.0911 35.7166 41.1703 36.6391 40.3811 37.4299C39.7235 38.0889 39.1973 38.6161 39.1973 39.6704C39.1973 40.7248 39.7235 41.252 40.3811 41.911C41.1703 42.7017 42.0911 43.4925 42.0911 45.3377C42.0911 47.051 41.1703 47.9736 40.3811 48.7643C39.7235 49.4233 39.1973 49.9505 39.1973 51.0049C39.1973 52.0592 39.7235 52.5864 40.3811 53.2454C41.1703 54.0362 42.0911 54.8269 42.0911 56.6721C42.0911 58.3854 41.1703 59.308 40.3811 60.0988C40.1181 60.3624 39.9865 60.3624 39.7235 60.3624Z" fill="#1E1E1E"/>
<path d="M38.2766 18.4514C37.882 18.4514 37.4874 18.056 37.4874 17.6606C37.4874 15.9473 38.4081 15.0247 39.1973 14.2339C39.855 13.575 40.3811 13.0478 40.3811 11.9934C40.3811 10.939 39.855 10.5437 39.1973 9.75288C38.4081 8.96211 37.4874 8.17133 37.4874 6.32619C37.4874 4.61285 38.4081 3.69028 39.1973 2.89951C39.855 2.24053 40.3811 1.71334 40.3811 0.658979C40.3811 0.395387 40.7757 0 41.1703 0C41.5649 0 41.9595 0.395387 41.9595 0.790774C41.9595 2.50412 41.0388 3.42669 40.2496 4.21746C39.5919 4.87644 39.0658 5.40362 39.0658 6.45799C39.0658 7.51236 39.5919 8.03954 40.2496 8.69852C41.0388 9.48929 41.9595 10.2801 41.9595 12.1252C41.9595 13.8385 41.0388 14.7611 40.2496 15.5519C39.5919 16.2109 39.0658 16.7381 39.0658 17.7924C39.1973 18.056 38.8027 18.4514 38.2766 18.4514Z" fill="#1E1E1E"/>
<path d="M34.8567 80H28.543C27.8853 80 27.2277 79.4728 27.2277 78.682V1.31796C27.2277 0.658979 27.7538 0 28.543 0H34.8567C35.2513 0 35.6459 0.395387 35.6459 0.790774V79.0774C35.6459 79.6046 35.3828 80 34.8567 80ZM28.9376 78.2867H34.0675V1.71334H28.9376V78.2867Z" fill="#1E1E1E"/>
<path d="M50.9039 80H44.5902C44.1956 80 43.801 79.6046 43.801 79.2092V0.790774C43.801 0.395387 44.1956 0 44.5902 0H50.9039C51.5616 0 52.2192 0.527183 52.2192 1.31796V78.682C52.2192 79.341 51.6931 80 50.9039 80ZM45.511 78.2867H50.6408V1.71334H45.511V78.2867Z" fill="#1E1E1E"/>
<path d="M54.5868 52.1911C54.1922 52.1911 53.7976 51.7957 53.7976 51.4003C53.7976 51.0049 54.1922 50.6095 54.5868 50.6095C60.3744 50.6095 65.1096 45.8649 65.1096 40.0659C65.1096 34.2669 60.3744 29.5222 54.5868 29.5222C54.1922 29.5222 53.7976 29.1268 53.7976 28.7314C53.7976 28.3361 54.1922 27.9407 54.5868 27.9407C61.2951 27.9407 66.688 33.3443 66.688 40.0659C66.688 46.6557 61.2951 52.1911 54.5868 52.1911Z" fill="#1E1E1E"/>
<path d="M77.2108 40.8567H69.3187C68.9241 40.8567 68.5295 40.4613 68.5295 40.0659C68.5295 39.6705 68.9241 39.2751 69.3187 39.2751H77.2108C77.6054 39.2751 78 39.6705 78 40.0659C78 40.4613 77.6054 40.8567 77.2108 40.8567Z" fill="#1E1E1E"/>
<path d="M75.1062 50.346C74.9747 50.346 74.8432 50.346 74.7116 50.2142L67.4772 46.7875C67.0826 46.6557 66.8196 46.1285 67.0826 45.7331C67.2142 45.3378 67.7403 45.206 68.1349 45.3378L75.3693 48.6326C75.7639 48.7644 76.027 49.2916 75.7639 49.687C75.6324 50.2142 75.3693 50.346 75.1062 50.346Z" fill="#1E1E1E"/>
<path d="M69.0556 58.1218C68.7926 58.1218 68.5295 57.99 68.398 57.8583L63.2681 51.7956C63.0051 51.4003 63.0051 50.8731 63.3997 50.6095C63.7943 50.3459 64.3204 50.3459 64.5835 50.7413L69.7133 56.8039C69.9764 57.1993 69.9764 57.7265 69.5818 57.99C69.4502 58.1218 69.3187 58.1218 69.0556 58.1218Z" fill="#1E1E1E"/>
<path d="M60.3744 62.7348C59.9798 62.7348 59.7167 62.4712 59.5852 62.0758L57.4806 54.4317C57.3491 54.0363 57.6121 53.5091 58.0067 53.3773C58.4014 53.2455 58.9275 53.5091 59.059 53.9045L61.1636 61.5486C61.2951 61.944 61.032 62.4712 60.6374 62.603C60.5059 62.7348 60.5059 62.7348 60.3744 62.7348Z" fill="#1E1E1E"/>
<path d="M67.8718 34.5306C67.6088 34.5306 67.2142 34.3988 67.0826 34.0034C66.9511 33.608 67.0826 33.0808 67.4772 32.9491L74.7116 29.6542C75.1062 29.5224 75.6324 29.6542 75.7639 30.0495C75.8954 30.4449 75.7639 30.9721 75.3693 31.1039L68.1349 34.5306C68.1349 34.5306 68.0034 34.5306 67.8718 34.5306Z" fill="#1E1E1E"/>
<path d="M64.0573 29.5222C63.9258 29.5222 63.6627 29.5222 63.5312 29.3904C63.1366 29.1268 63.1366 28.5997 63.3997 28.2043L68.5295 22.1417C68.7926 21.7463 69.3187 21.7463 69.7133 22.0099C70.1079 22.2735 70.1079 22.8007 69.8448 23.196L64.715 29.2586C64.4519 29.3904 64.1889 29.5222 64.0573 29.5222Z" fill="#1E1E1E"/>
<path d="M58.4014 26.6228C58.2698 26.6228 58.2698 26.6228 58.1383 26.6228C57.7437 26.491 57.4806 26.0956 57.6121 25.5684L59.7167 17.9243C59.8482 17.5289 60.2428 17.2653 60.769 17.3971C61.1636 17.5289 61.4266 17.9243 61.2951 18.4514L59.1906 25.9638C59.059 26.3592 58.6644 26.6228 58.4014 26.6228Z" fill="#1E1E1E"/>
<path d="M24.9916 40.8564H0.789208C0.394604 40.8564 0 40.461 0 39.9338C0 39.5385 0.394604 39.1431 0.789208 39.1431H24.9916C25.3862 39.1431 25.7808 39.5385 25.7808 39.9338C25.7808 40.461 25.3862 40.8564 24.9916 40.8564Z" fill="#1E1E1E"/>
<path d="M3.55144 43.8878C3.28837 43.8878 3.15683 43.756 3.0253 43.6242C2.76223 43.3606 2.76223 42.8335 3.0253 42.4381L5.39292 40.0657L3.0253 37.6934C2.76223 37.4298 2.76223 36.9027 3.0253 36.5073C3.28837 36.2437 3.8145 36.2437 4.20911 36.5073L7.2344 39.5386C7.49747 39.8022 7.49747 40.3293 7.2344 40.7247L4.20911 43.756C3.94604 43.756 3.68297 43.8878 3.55144 43.8878Z" fill="#1E1E1E"/>
<path d="M8.68128 45.2058C8.41821 45.2058 8.28668 45.074 8.15514 44.9422C7.89207 44.6786 7.89207 44.1514 8.15514 43.756L11.9696 39.934L8.15514 36.1119C7.89207 35.8483 7.89207 35.3211 8.15514 34.9257C8.41821 34.6621 8.94435 34.6621 9.33895 34.9257L13.6796 39.275C13.9427 39.5386 13.9427 40.0658 13.6796 40.4611L9.33895 44.8104C9.20742 45.074 8.94435 45.2058 8.68128 45.2058Z" fill="#1E1E1E"/>
<path d="M8.81282 60.0988C8.54975 60.0988 8.41821 59.967 8.28668 59.8352C8.02361 59.5716 8.02361 59.0444 8.28668 58.649L24.4654 42.4382C24.7285 42.1746 25.2546 42.1746 25.6492 42.4382C25.9123 42.7018 25.9123 43.2289 25.6492 43.6243L9.33896 59.8352C9.20742 60.0988 9.07589 60.0988 8.81282 60.0988Z" fill="#1E1E1E"/>
<path d="M12.8904 60.3625C12.4958 60.3625 12.1012 59.9671 12.1012 59.5717V56.145H8.54975C8.15515 56.145 7.76054 55.7496 7.76054 55.3542C7.76054 54.9589 8.15515 54.5635 8.54975 54.5635H12.7589C13.1535 54.5635 13.5481 54.9589 13.5481 55.3542V59.5717C13.6796 59.9671 13.285 60.3625 12.8904 60.3625Z" fill="#1E1E1E"/>
<path d="M17.4941 57.5948C17.0995 57.5948 16.7049 57.1994 16.7049 56.804V51.4004H11.312C10.7858 51.4004 10.5228 51.005 10.5228 50.6096C10.5228 50.2142 10.9174 49.8188 11.312 49.8188H17.4941C17.8887 49.8188 18.2833 50.2142 18.2833 50.6096V56.804C18.2833 57.1994 17.8887 57.5948 17.4941 57.5948Z" fill="#1E1E1E"/>
<path d="M24.9916 37.6935C24.7285 37.6935 24.597 37.5617 24.4654 37.4299L8.28668 21.2191C8.02361 20.9555 8.02361 20.4283 8.28668 20.0329C8.54975 19.7693 9.07589 19.7693 9.47049 20.0329L25.6492 36.2438C25.9123 36.5074 25.9123 37.0345 25.6492 37.4299C25.3862 37.5617 25.1231 37.6935 24.9916 37.6935Z" fill="#1E1E1E"/>
<path d="M12.8904 25.5683H8.54975C8.15515 25.5683 7.76054 25.1729 7.76054 24.7775C7.76054 24.3821 8.15515 23.9868 8.54975 23.9868H11.9697V20.5601C11.9697 20.1647 12.3643 19.7693 12.7589 19.7693C13.1535 19.7693 13.5481 20.1647 13.5481 20.5601V24.7775C13.6796 25.1729 13.285 25.5683 12.8904 25.5683Z" fill="#1E1E1E"/>
<path d="M17.4941 30.1812H11.312C10.9174 30.1812 10.5228 29.7858 10.5228 29.3904C10.5228 28.9951 10.9174 28.5997 11.312 28.5997H16.7049V23.196C16.7049 22.8007 17.0995 22.4053 17.4941 22.4053C17.8887 22.4053 18.2833 22.8007 18.2833 23.196V29.3904C18.2833 29.7858 17.8887 30.1812 17.4941 30.1812Z" fill="#1E1E1E"/>
<path d="M23.2816 52.4546C23.0185 52.4546 22.6239 52.3228 22.4924 52.0592L20.3879 47.71L16.0472 45.6012C15.6526 45.4694 15.5211 44.9423 15.6526 44.5469L17.231 39.934L15.6526 35.3212C15.5211 34.9258 15.6526 34.5304 16.0472 34.2668L20.3879 32.1581L22.4924 27.8088C22.6239 27.4134 23.1501 27.2816 23.5447 27.4134L25.2546 27.9406C25.6492 28.0724 25.9123 28.5996 25.7808 28.995C25.6492 29.3904 25.1231 29.654 24.7285 29.5222L23.6762 29.3904L21.7032 33.3442C21.5717 33.476 21.4401 33.6078 21.3086 33.7396L17.3626 35.7166L18.8094 39.8022C18.8094 39.934 18.8094 40.1976 18.8094 40.3294L17.3626 44.4151L21.3086 46.392C21.4401 46.5238 21.5717 46.6556 21.7032 46.7874L23.6762 50.7413L24.7285 50.3459C25.1231 50.2141 25.6492 50.4777 25.7808 50.8731C25.9123 51.2685 25.6492 51.7956 25.2546 51.9274L23.5447 52.4546C23.4132 52.4546 23.4132 52.4546 23.2816 52.4546Z" fill="#1E1E1E"/>
</g>
<defs>
<clipPath id="clip0_142_397">
<rect width="78" height="80" fill="white"/>
</clipPath>
</defs>
</svg>
