<svg width="84" height="80" viewBox="0 0 84 80" fill="none" xmlns="http://www.w3.org/2000/svg">
<g clip-path="url(#clip0_126_264)">
<path d="M82.8123 24.8853H1.35779V62.9646H82.8123V24.8853Z" stroke="#1D1D1B" stroke-width="1.5" stroke-miterlimit="10" stroke-linecap="round" stroke-linejoin="round"/>
<path d="M17.3015 78.6437L17.3015 62.9443H1.35L1.35 78.6437H17.3015Z" stroke="#1D1D1B" stroke-width="1.5" stroke-miterlimit="10" stroke-linecap="round" stroke-linejoin="round"/>
<path d="M50.0466 78.6501V62.9507H34.0951V78.6501H50.0466Z" stroke="#1D1D1B" stroke-width="1.5" stroke-miterlimit="10" stroke-linecap="round" stroke-linejoin="round"/>
<path d="M82.7918 78.6562V62.9568H66.8403V78.6562H82.7918Z" stroke="#1D1D1B" stroke-width="1.5" stroke-miterlimit="10" stroke-linecap="round" stroke-linejoin="round"/>
<path d="M64.994 16.5345V1.33618" stroke="#1D1D1B" stroke-width="1.5" stroke-miterlimit="10" stroke-linecap="round" stroke-linejoin="round"/>
<path d="M59.5637 6.51363L64.994 1.33618L70.2546 6.51363" stroke="#1D1D1B" stroke-width="1.5" stroke-miterlimit="10" stroke-linecap="round" stroke-linejoin="round"/>
<path d="M42.0849 16.5345V1.33618" stroke="#1D1D1B" stroke-width="1.5" stroke-miterlimit="10" stroke-linecap="round" stroke-linejoin="round"/>
<path d="M36.6546 6.51363L42.0849 1.33618L47.3455 6.51363" stroke="#1D1D1B" stroke-width="1.5" stroke-miterlimit="10" stroke-linecap="round" stroke-linejoin="round"/>
<path d="M19.0061 16.5345V1.33618" stroke="#1D1D1B" stroke-width="1.5" stroke-miterlimit="10" stroke-linecap="round" stroke-linejoin="round"/>
<path d="M13.7455 6.51363L19.0061 1.33618L24.4364 6.51363" stroke="#1D1D1B" stroke-width="1.5" stroke-miterlimit="10" stroke-linecap="round" stroke-linejoin="round"/>
<path d="M63.9758 53.9458C67.0303 53.9458 67.0303 57.1191 70.2546 57.1191C73.3091 57.1191 73.3091 53.9458 76.5333 53.9458C79.5879 53.9458 79.5879 57.1191 82.8121 57.1191" stroke="#1D1D1B" stroke-width="1.5" stroke-miterlimit="10" stroke-linecap="round" stroke-linejoin="round"/>
<path d="M32.5818 57.1191C35.6364 57.1191 35.6364 53.9458 38.8606 53.9458C41.9152 53.9458 41.9152 57.1191 45.1394 57.1191C48.194 57.1191 48.194 53.9458 51.4182 53.9458" stroke="#1D1D1B" stroke-width="1.5" stroke-miterlimit="10" stroke-linecap="round" stroke-linejoin="round"/>
<path d="M1.35779 53.9458C4.41233 53.9458 4.41233 57.1191 7.63658 57.1191C10.6911 57.1191 10.6911 53.9458 13.9154 53.9458C16.9699 53.9458 16.9699 57.1191 20.1941 57.1191" stroke="#1D1D1B" stroke-width="1.5" stroke-miterlimit="10" stroke-linecap="round" stroke-linejoin="round"/>
<path d="M51.4182 46.2629C54.4728 46.2629 54.4728 49.4362 57.697 49.4362C60.7515 49.4362 60.7515 46.2629 63.9758 46.2629C67.0303 46.2629 67.0303 49.4362 70.2546 49.4362C73.3091 49.4362 73.3091 46.2629 76.5334 46.2629" stroke="#1D1D1B" stroke-width="1.5" stroke-miterlimit="10" stroke-linecap="round" stroke-linejoin="round"/>
<path d="M20.0243 49.4362C23.0788 49.4362 23.0788 46.2629 26.3031 46.2629C29.3576 46.2629 29.3576 49.4362 32.5819 49.4362C35.6364 49.4362 35.6364 46.2629 38.8607 46.2629" stroke="#1D1D1B" stroke-width="1.5" stroke-miterlimit="10" stroke-linecap="round" stroke-linejoin="round"/>
<path d="M1.35779 46.2629C4.41233 46.2629 4.41233 49.4362 7.63658 49.4362" stroke="#1D1D1B" stroke-width="1.5" stroke-miterlimit="10" stroke-linecap="round" stroke-linejoin="round"/>
<path d="M76.5333 38.5803C79.5879 38.5803 79.5879 41.7536 82.8121 41.7536" stroke="#1D1D1B" stroke-width="1.5" stroke-miterlimit="10" stroke-linecap="round" stroke-linejoin="round"/>
<path d="M38.8607 38.5803C41.9152 38.5803 41.9152 41.7536 45.1394 41.7536C48.194 41.7536 48.194 38.5803 51.4182 38.5803C54.4728 38.5803 54.4728 41.7536 57.697 41.7536C60.7516 41.7536 60.7516 38.5803 63.9758 38.5803" stroke="#1D1D1B" stroke-width="1.5" stroke-miterlimit="10" stroke-linecap="round" stroke-linejoin="round"/>
<path d="M1.35779 38.5803C4.41233 38.5803 4.41233 41.7536 7.63658 41.7536C10.6911 41.7536 10.6911 38.5803 13.9154 38.5803C16.9699 38.5803 16.9699 41.7536 20.1941 41.7536C23.2487 41.7536 23.2487 38.5803 26.4729 38.5803" stroke="#1D1D1B" stroke-width="1.5" stroke-miterlimit="10" stroke-linecap="round" stroke-linejoin="round"/>
<path d="M57.697 34.071C60.7516 34.071 60.7516 30.8977 63.9758 30.8977C67.0304 30.8977 67.0304 34.071 70.2546 34.071C73.3091 34.071 73.3091 30.8977 76.5334 30.8977C79.5879 30.8977 79.5879 34.071 82.8122 34.071" stroke="#1D1D1B" stroke-width="1.5" stroke-miterlimit="10" stroke-linecap="round" stroke-linejoin="round"/>
<path d="M20.0243 34.071C23.0788 34.071 23.0788 30.8977 26.3031 30.8977C29.3576 30.8977 29.3576 34.071 32.5819 34.071C35.6364 34.071 35.6364 30.8977 38.8607 30.8977C41.9152 30.8977 41.9152 34.071 45.1394 34.071" stroke="#1D1D1B" stroke-width="1.5" stroke-miterlimit="10" stroke-linecap="round" stroke-linejoin="round"/>
<path d="M1.35779 30.8977C4.41233 30.8977 4.41233 34.071 7.63658 34.071" stroke="#1D1D1B" stroke-width="1.5" stroke-miterlimit="10" stroke-linecap="round" stroke-linejoin="round"/>
</g>
<defs>
<clipPath id="clip0_126_264">
<rect width="84" height="80" fill="white"/>
</clipPath>
</defs>
</svg>
