<svg width="80" height="80" viewBox="0 0 80 80" fill="none" xmlns="http://www.w3.org/2000/svg">
<g clip-path="url(#clip0_142_537)">
<path d="M8.20513 36.3198C7.84314 36.3198 7.60181 36.0784 7.48115 35.8371C7.36048 35.4751 7.60181 34.9925 7.9638 34.8718L12.6697 33.1825L14.359 28.4766C14.4796 28.2353 14.6003 28.1146 14.8416 27.994L19.5475 26.3047L21.2368 21.5988C21.3575 21.3575 21.4781 21.2368 21.7195 21.1161L26.4253 19.4269L28.1146 14.721C28.2353 14.4796 28.356 14.359 28.5973 14.2383L33.3032 12.549L34.9925 7.84314C35.1131 7.48115 35.5958 7.23983 35.9578 7.36049C36.1991 7.60182 36.4404 8.08447 36.3198 8.44646L34.5098 13.5143C34.3891 13.7557 34.2685 13.8763 34.0272 13.997L29.3213 15.6863L27.632 20.3922C27.5113 20.6335 27.3906 20.7542 27.1493 20.8748L22.4434 22.5641L20.7542 27.27C20.6335 27.5113 20.5128 27.632 20.2715 27.7526L15.6863 29.3213L13.997 34.0272C13.8763 34.2685 13.7557 34.3891 13.5143 34.5098L8.44646 36.3198C8.44646 36.3198 8.32579 36.3198 8.20513 36.3198Z" fill="#1E1E1E"/>
<path d="M8.20513 55.6259C8.08447 55.6259 8.08447 55.6259 7.9638 55.6259C7.60181 55.5053 7.36048 55.0226 7.48115 54.6606L8.92911 50.5581C9.04978 50.3167 9.17044 50.1961 9.41177 50.0754L14.1176 48.3861L15.8069 43.6802C15.9276 43.4389 16.0483 43.3183 16.2896 43.1976L20.9955 41.5083L22.6848 36.8024C22.8054 36.5611 22.9261 36.4404 23.1674 36.3198L27.8733 34.6305L29.5626 29.9246C29.6833 29.6833 29.8039 29.5626 30.0452 29.4419L34.7511 27.7526L36.4404 23.0468C36.5611 22.8054 36.6818 22.6848 36.9231 22.5641L41.629 20.8748L43.3183 16.1689C43.4389 15.9276 43.5596 15.8069 43.8009 15.6863L48.5068 13.997L50.1961 9.29111C50.3167 9.04978 50.4374 8.92912 50.6787 8.80845L54.7813 7.36049C55.1433 7.23983 55.6259 7.48115 55.7466 7.84314C55.8673 8.20514 55.6259 8.68779 55.264 8.80845L51.5234 10.1358L49.8341 14.8416C49.7134 15.083 49.5928 15.2036 49.3514 15.3243L44.6455 17.0136L42.9563 21.7195C42.8356 21.9608 42.7149 22.0815 42.4736 22.2021L37.7677 23.8914L36.0784 28.5973C35.9578 28.8386 35.8371 28.9593 35.5958 29.0799L30.8899 30.7692L29.2006 35.4751C29.0799 35.7164 28.9593 35.8371 28.7179 35.9578L24.0121 37.6471L22.3228 42.3529C22.2021 42.5943 22.0815 42.7149 21.8401 42.8356L17.1342 44.5249L15.4449 49.2308C15.3243 49.4721 15.2036 49.5928 14.9623 49.7134L10.2564 51.4027L8.92911 55.1433C8.80845 55.3846 8.56712 55.6259 8.20513 55.6259Z" fill="#1E1E1E"/>
<path d="M10.1357 69.6229C10.0151 69.6229 10.0151 69.6229 9.89442 69.6229C9.53243 69.5023 9.2911 69.0196 9.41177 68.6576L10.4977 65.641C10.6184 65.3997 10.7391 65.279 10.9804 65.1584L15.6863 63.4691L17.3756 58.7632C17.4962 58.5219 17.6169 58.4012 17.8582 58.2805L22.5641 56.5912L24.2534 51.8854C24.3741 51.644 24.4947 51.5234 24.736 51.4027L29.4419 49.7134L31.1312 45.0075C31.2519 44.7662 31.3726 44.6455 31.6139 44.5249L36.3198 42.8356L38.0091 38.1297C38.1297 37.8884 38.2504 37.7677 38.4917 37.6471L43.1976 35.9578L44.8869 31.2519C45.0075 31.0106 45.1282 30.8899 45.3695 30.7692L50.0754 29.0799L51.7647 24.3741C51.8854 24.1327 52.006 24.0121 52.2474 23.8914L56.9532 22.2021L58.6425 17.4962C58.7632 17.2549 58.8839 17.1342 59.1252 17.0136L63.8311 15.3243L65.1584 10.9804C65.279 10.7391 65.3997 10.6184 65.641 10.4977L68.6576 9.41176C69.0196 9.2911 69.5023 9.53242 69.6229 9.89441C69.7436 10.2564 69.5023 10.7391 69.1403 10.8597L66.4857 11.825L64.7964 16.5309C64.6757 16.7722 64.555 16.8929 64.3137 17.0136L59.6078 18.7029L57.9186 23.2881C57.7979 23.5294 57.6772 23.6501 57.4359 23.7707L52.73 25.46L51.1614 30.1659C51.0407 30.4072 50.9201 30.5279 50.6787 30.6486L45.9729 32.3379L44.2836 37.0437C44.1629 37.2851 44.0422 37.4057 43.8009 37.5264L39.095 39.2157L37.4057 43.8009C37.2851 44.0422 37.1644 44.1629 36.9231 44.2836L32.2172 45.9728L30.6486 50.6787C30.5279 50.9201 30.4072 51.0407 30.1659 51.1614L25.46 52.8507L23.7707 57.5566C23.6501 57.7979 23.5294 57.9185 23.2881 58.0392L18.5822 59.7285L16.8929 64.3137C16.7722 64.555 16.6516 64.6757 16.4103 64.7964L11.7044 66.4857L10.8597 69.1403C10.7391 69.3816 10.4977 69.6229 10.1357 69.6229Z" fill="#1E1E1E"/>
<path d="M25.822 69.623C25.7014 69.623 25.7014 69.623 25.5807 69.623C25.2187 69.5024 24.9774 69.0197 25.098 68.6577L25.5807 67.2098C25.7014 66.9684 25.822 66.8478 26.0633 66.7271L30.7692 65.0378L32.4585 60.3319C32.5792 60.0906 32.6998 59.9699 32.9412 59.8493L37.1644 58.2807C37.5264 58.16 38.009 58.4013 38.1297 58.7633C38.2504 59.1253 38.009 59.608 37.6471 59.7286L33.7858 61.1766L32.0965 65.8825C31.9759 66.1238 31.8552 66.2445 31.6139 66.3651L26.908 68.0544L26.546 69.1404C26.4253 69.3817 26.184 69.623 25.822 69.623Z" fill="#1E1E1E"/>
<path d="M8.20513 20.6335C7.84314 20.6335 7.60181 20.3922 7.48115 20.1508C7.36048 19.7888 7.60181 19.3062 7.9638 19.1855L11.1011 17.9789L12.7903 13.273C12.911 13.0317 13.0317 12.911 13.273 12.7904L17.9789 11.1011L19.1855 7.84314C19.3062 7.48115 19.7888 7.23983 20.1508 7.36049C20.5128 7.60182 20.7542 8.08447 20.6335 8.44646L19.3062 12.0664C19.1855 12.3077 19.0649 12.4284 18.8235 12.549L14.1176 14.2383L12.4284 18.9442C12.3077 19.1855 12.187 19.3062 11.9457 19.4269L8.44646 20.6335C8.44646 20.6335 8.32579 20.6335 8.20513 20.6335Z" fill="#1E1E1E"/>
<path d="M44.4042 72.5188H5.79186C5.18854 72.5188 4.58522 72.0362 4.58522 71.3122V5.79184C4.58522 5.18852 5.06788 4.58521 5.79186 4.58521H71.3122C71.9155 4.58521 72.5189 5.06786 72.5189 5.79184V40.905C72.5189 41.267 72.1569 41.6289 71.7949 41.6289C71.4329 41.6289 71.0709 41.267 71.0709 40.905V6.15383H6.15385V71.0709H44.4042C44.7662 71.0709 45.1282 71.4329 45.1282 71.7949C45.1282 72.1568 44.8869 72.5188 44.4042 72.5188Z" fill="#1E1E1E"/>
<path d="M0.723982 67.9336C0.361991 67.9336 0 67.5716 0 67.089V1.20664C0 0.603318 0.482655 0 1.20664 0H67.089C67.451 0 67.813 0.361991 67.813 0.723982C67.813 1.08597 67.451 1.44796 67.089 1.44796H1.56863V67.089C1.56863 67.5716 1.20664 67.9336 0.723982 67.9336Z" fill="#1E1E1E"/>
<path d="M59.7285 80C53.454 80 47.6621 77.1041 43.8009 72.1569C41.0256 68.537 39.5777 64.3137 39.5777 59.7285C39.5777 48.6275 48.6274 39.457 59.8492 39.457C62.0211 39.457 64.1931 39.819 66.365 40.543C74.5701 43.3183 80.1207 51.0407 80.1207 59.7285C80 70.9502 70.9502 80 59.7285 80ZM59.7285 41.0257C49.4721 41.0257 41.0256 49.4721 41.0256 59.7285C41.0256 63.9517 42.3529 67.9336 45.0075 71.1916C48.6274 75.7768 53.9366 78.4314 59.7285 78.4314C70.1056 78.4314 78.4314 69.9849 78.4314 59.7285C78.4314 51.6441 73.3635 44.5249 65.641 41.991C63.8311 41.3876 61.7798 41.0257 59.7285 41.0257Z" fill="#1E1E1E"/>
<path d="M67.813 69.8643H56.9532C56.2293 69.8643 55.3846 69.5023 54.902 69.0196L54.7813 68.899C54.6606 68.7783 54.4193 68.6577 54.178 68.6577H54.0573C53.6953 68.6577 53.3333 68.2957 53.3333 67.9337V57.4359C53.3333 57.0739 53.6953 56.712 54.0573 56.712C54.2986 56.712 54.54 56.5913 54.6606 56.35L56.8326 53.092C57.6772 51.7647 58.2805 50.3168 58.5219 48.8688L58.8839 46.4555C59.0045 45.8522 59.4872 45.4902 60.0905 45.4902C61.7798 45.7316 63.1071 47.1795 63.3484 48.8688L63.4691 49.7135C63.5897 50.6788 63.4691 51.7647 63.3484 52.7301L62.9864 54.902H69.5023C70.2262 54.902 70.8296 55.1433 71.3122 55.626C71.7949 56.1086 72.0362 56.712 72.0362 57.4359C72.0362 58.1599 71.6742 58.7632 71.1915 59.2459C71.5535 59.7285 71.6742 60.2112 71.6742 60.8145C71.6742 61.5385 71.3122 62.1418 70.8296 62.6245C71.1915 62.9865 71.3122 63.5898 71.3122 64.0724C71.3122 64.9171 70.8296 65.7617 70.1056 66.1237C70.3469 66.4857 70.4676 66.9684 70.4676 67.451C70.2262 68.7783 69.1403 69.8643 67.813 69.8643ZM54.7813 67.2097C55.1433 67.3304 55.5053 67.5717 55.8673 67.813L55.9879 67.9337C56.2293 68.175 56.5912 68.2957 56.9532 68.2957H67.813C68.2956 68.2957 68.7783 67.9337 68.7783 67.3304C68.7783 66.8477 68.4163 66.365 67.813 66.365C67.451 66.365 67.089 66.0031 67.089 65.6411C67.089 65.2791 67.451 64.9171 67.813 64.9171H68.6576C69.1403 64.9171 69.6229 64.5551 69.6229 63.9518C69.6229 63.4691 69.2609 62.9865 68.6576 62.9865C68.2956 62.9865 67.9336 62.6245 67.9336 62.2625C67.9336 61.9005 68.2956 61.5385 68.6576 61.5385H69.0196C69.5023 61.5385 69.9849 61.1765 69.9849 60.6939C69.9849 60.4525 69.8642 60.2112 69.7436 59.9699C69.6229 59.7285 69.3816 59.7285 69.0196 59.7285C68.6576 59.7285 68.2956 59.3666 68.2956 59.0046C68.2956 58.6426 68.6576 58.2806 69.0196 58.2806H69.3816C69.8642 58.2806 70.3469 57.9186 70.3469 57.4359C70.3469 57.1946 70.2262 56.9533 70.1056 56.712C69.9849 56.4706 69.7436 56.4706 69.3816 56.4706H62.0211C61.7798 56.4706 61.5385 56.35 61.4178 56.2293C61.2971 56.1086 61.1765 55.8673 61.2971 55.626L61.7798 52.6094C61.9004 51.7647 61.9004 50.7994 61.9004 49.9548L61.7798 49.1101C61.6591 48.1448 61.0558 47.4208 60.2112 47.1795L59.8492 49.1101C59.6078 50.9201 58.8839 52.4887 57.9185 53.9367L55.7466 57.1946C55.5053 57.6773 55.0226 57.9186 54.54 58.0393V67.2097H54.7813Z" fill="#1E1E1E"/>
<path d="M53.3333 70.4677H49.1101C48.3861 70.4677 47.6621 69.8643 47.6621 69.0197V56.9533C47.6621 56.2294 48.2655 55.5054 49.1101 55.5054H53.3333C54.0573 55.5054 54.7813 56.1087 54.7813 56.9533V69.0197C54.7813 69.7437 54.0573 70.4677 53.3333 70.4677ZM49.2308 68.899H53.2127V57.074H49.2308V68.899Z" fill="#1E1E1E"/>
<path d="M69.0196 59.8493H67.6923C67.3303 59.8493 66.9683 59.4873 66.9683 59.1253C66.9683 58.7634 67.3303 58.4014 67.6923 58.4014H69.0196C69.3816 58.4014 69.7436 58.7634 69.7436 59.1253C69.7436 59.4873 69.3816 59.8493 69.0196 59.8493Z" fill="#1E1E1E"/>
<path d="M68.6576 63.228H67.451C67.089 63.228 66.727 62.866 66.727 62.504C66.727 62.142 67.089 61.78 67.451 61.78H68.6576C69.0196 61.78 69.3816 62.142 69.3816 62.504C69.3816 62.866 69.0196 63.228 68.6576 63.228Z" fill="#1E1E1E"/>
<path d="M67.813 66.4858H66.9683C66.6063 66.4858 66.2443 66.1238 66.2443 65.7618C66.2443 65.3998 66.6063 65.0378 66.9683 65.0378H67.813C68.175 65.0378 68.5369 65.3998 68.5369 65.7618C68.5369 66.2445 68.175 66.4858 67.813 66.4858Z" fill="#1E1E1E"/>
<path d="M66.003 42.1116C65.641 42.1116 65.279 41.7496 65.279 41.3876V33.5445L62.9864 35.8371C62.8657 35.9578 62.6244 36.0784 62.3831 36.0784C62.1418 36.0784 61.9004 35.9578 61.7798 35.7164L59.7285 32.9412L57.6772 35.7164C57.5565 35.8371 57.3152 35.9578 57.0739 36.0784C56.8326 36.0784 56.5912 35.9578 56.4706 35.8371L54.2986 33.5445V38.371C54.2986 38.733 53.9366 39.095 53.5746 39.095C53.2127 39.095 52.8507 38.733 52.8507 38.371V31.7345C52.8507 31.3725 53.092 31.1312 53.3333 31.0106C53.5746 30.8899 53.9366 31.0106 54.178 31.1312L57.0739 34.1478L59.2458 31.2519C59.3665 31.0106 59.6078 30.8899 59.8492 30.8899C60.0905 30.8899 60.3318 31.0106 60.4525 31.2519L62.6244 34.1478L65.5203 31.1312C65.7617 30.8899 66.003 30.8899 66.365 31.0106C66.6063 31.1312 66.8476 31.3725 66.8476 31.7345V41.3876C66.727 41.7496 66.365 42.1116 66.003 42.1116Z" fill="#1E1E1E"/>
</g>
<defs>
<clipPath id="clip0_142_537">
<rect width="80" height="80" fill="white"/>
</clipPath>
</defs>
</svg>
