<svg width="80" height="80" viewBox="0 0 80 80" fill="none" xmlns="http://www.w3.org/2000/svg">
<g clip-path="url(#clip0_142_455)">
<path d="M78.6644 80H2.00332C1.60266 80 1.33554 79.7329 1.20199 79.4658C1.06843 79.1986 1.20199 78.798 1.33554 78.5309L78.6644 1.33554C78.9315 1.06843 79.1986 1.06843 79.5993 1.20198C79.8664 1.33554 80.1335 1.60265 80.1335 2.00332V78.798C80 79.4658 79.4658 80 78.6644 80ZM4.00666 78.3973H78.3973V4.00666L4.00666 78.3973Z" fill="#1E1E1E"/>
<path d="M0.801336 28.1803C0.66778 28.1803 0.534224 28.1803 0.534224 28.1803C0.267112 28.0467 0 27.6461 0 27.379V1.33556C0 0.66778 0.534224 0 1.33556 0H27.379C27.7796 0 28.0467 0.267112 28.1803 0.534224C28.3139 0.801336 28.1803 1.202 28.0467 1.46912L1.46912 27.9132C1.33556 28.0467 1.06845 28.1803 0.801336 28.1803ZM1.73623 1.73623V25.3756L25.3756 1.73623H1.73623Z" fill="#1E1E1E"/>
<path d="M0.801336 54.6244C0.66778 54.6244 0.534224 54.6244 0.534224 54.6244C0.267112 54.4908 0 54.2237 0 53.823V27.379C0 27.1119 0.133556 26.9783 0.267112 26.8447L26.7112 0.267112C26.8447 0.133556 27.1119 0 27.379 0H53.823C54.2237 0 54.4908 0.267112 54.6244 0.534224C54.7579 0.801336 54.6244 1.202 54.4908 1.46912L1.46912 54.4908C1.33556 54.6244 1.06845 54.6244 0.801336 54.6244ZM1.73623 27.6461V51.8197L51.8197 1.73623H27.6461L1.73623 27.6461Z" fill="#1E1E1E"/>
<path d="M2.00334 80H1.33556C0.66778 80 0 79.4658 0 78.6644V53.823C0 53.5559 0.133556 53.4224 0.267112 53.2888L53.2888 0.267112C53.4224 0.133556 53.5559 0 53.823 0H78.6644C79.3322 0 80 0.534224 80 1.33556V2.00334C80 2.27045 79.8664 2.40401 79.7329 2.53756L2.53756 79.8664C2.40401 80 2.13689 80 2.00334 80ZM1.73623 54.2237V78.3973L78.2638 1.73623H54.2237L1.73623 54.2237Z" fill="#1E1E1E"/>
<path d="M18.5643 10.5509H0.801336C0.400668 10.5509 0 10.1502 0 9.61603C0 9.21536 0.400668 8.81469 0.801336 8.81469H17.6294V0.801336C17.6294 0.400668 18.0301 0 18.4307 0C18.8314 0 19.2321 0.400668 19.2321 0.801336V9.61603C19.3656 10.1502 18.9649 10.5509 18.5643 10.5509Z" fill="#1E1E1E"/>
<path d="M9.61603 19.3656H0.801336C0.400668 19.3656 0 18.9649 0 18.5643C0 18.1636 0.400668 17.7629 0.801336 17.7629H9.61603C10.0167 17.7629 10.4174 18.1636 10.4174 18.5643C10.5509 18.9649 10.1503 19.3656 9.61603 19.3656Z" fill="#1E1E1E"/>
<path d="M6.2771 19.3656C5.87644 19.3656 5.47577 18.9649 5.47577 18.5643V9.61603C5.47577 9.21536 5.87644 8.8147 6.2771 8.8147C6.67777 8.8147 7.07844 9.21536 7.07844 9.61603V18.4307C7.212 18.9649 6.81133 19.3656 6.2771 19.3656Z" fill="#1E1E1E"/>
<path d="M22.9716 28.848C22.8381 28.848 22.7045 28.848 22.7045 28.848L19.4992 27.5124L16.1603 28.848C16.0267 28.9815 15.7596 28.9815 15.4925 28.848L12.1536 27.5124L8.81468 28.848C8.68112 28.9815 8.41401 28.9815 8.1469 28.848L4.54089 27.3789C4.14022 27.2453 3.87311 26.7111 4.00667 26.3104C4.14022 25.9098 4.67445 25.6426 5.07511 25.7762L8.41401 27.1118L11.7529 25.7762C11.8865 25.6426 12.1536 25.6426 12.4207 25.7762L15.7596 27.1118L19.0985 25.7762C19.232 25.6426 19.4992 25.6426 19.7663 25.7762L23.3723 27.2453C23.7729 27.3789 24.0401 27.9131 23.9065 28.3138C23.6394 28.7144 23.3723 28.848 22.9716 28.848Z" fill="#1E1E1E"/>
<path d="M9.74959 42.0701C9.61603 42.0701 9.48248 42.0701 9.48248 42.0701L6.14358 40.7346L4.14024 41.5359C3.73957 41.6695 3.20535 41.5359 3.07179 41.0017C2.93824 40.601 3.07179 40.0668 3.60602 39.9333L5.87647 38.9984C6.01002 38.8648 6.27713 38.8648 6.54425 38.9984L10.1503 40.4675C10.5509 40.601 10.818 41.1353 10.6845 41.5359C10.4174 41.9366 10.1503 42.0701 9.74959 42.0701Z" fill="#1E1E1E"/>
<path d="M16.4274 35.526C16.2938 35.526 16.1603 35.526 16.1603 35.526L12.8214 34.1904L9.48248 35.526C9.34892 35.6595 9.08181 35.6595 8.8147 35.526L5.4758 34.1904L4.14024 34.7246C3.73957 34.8582 3.20535 34.7246 3.07179 34.1904C2.93824 33.7897 3.07179 33.2555 3.60602 33.122L5.34224 32.4542C5.4758 32.3206 5.74291 32.3206 6.01002 32.4542L9.34892 33.7897L12.6878 32.4542C12.8214 32.3206 13.0885 32.3206 13.3556 32.4542L16.9616 33.9233C17.3623 34.0568 17.6294 34.5911 17.4958 34.9917C17.0952 35.2588 16.6945 35.526 16.4274 35.526Z" fill="#1E1E1E"/>
<path d="M29.6494 22.3038C29.5159 22.3038 29.3823 22.3038 29.3823 22.3038L26.177 20.9682L22.9717 22.3038C22.7045 22.4374 22.571 22.4374 22.3039 22.3038L19.0985 20.9682L15.8932 22.3038C15.6261 22.4374 15.4925 22.4374 15.2254 22.3038L11.6194 20.8347C11.2187 20.7011 10.9516 20.1669 11.2187 19.7662C11.3523 19.3656 11.8865 19.0985 12.2872 19.3656L15.4925 20.7011L18.6979 19.3656C18.965 19.232 19.0985 19.232 19.3656 19.3656L22.571 20.7011L25.7763 19.3656C26.0434 19.232 26.177 19.232 26.4441 19.3656L30.0501 20.8347C30.4508 20.9682 30.7179 21.5025 30.4508 21.9031C30.3172 22.0367 30.0501 22.3038 29.6494 22.3038Z" fill="#1E1E1E"/>
<path d="M36.3272 15.6261C36.1937 15.6261 36.0601 15.6261 36.0601 15.6261L32.8548 14.2905L29.6494 15.6261C29.3823 15.7596 29.2488 15.7596 28.9817 15.6261L25.7763 14.2905L22.571 15.6261C22.3039 15.7596 22.1703 15.7596 21.9032 15.6261L18.2972 14.157C17.8965 14.0234 17.6294 13.4892 17.8965 13.0885C18.0301 12.6878 18.5643 12.4207 18.965 12.6878L22.1703 14.0234L25.3757 12.6878C25.6428 12.5543 25.7763 12.5543 26.0434 12.6878L29.2488 14.0234L32.4541 12.6878C32.7212 12.5543 32.8548 12.5543 33.1219 12.6878L36.7279 14.157C37.1286 14.2905 37.3957 14.8247 37.1286 15.2254C36.995 15.4925 36.5944 15.6261 36.3272 15.6261Z" fill="#1E1E1E"/>
<path d="M42.8715 8.94832C42.7379 8.94832 42.6043 8.94832 42.6043 8.94832L39.2654 7.61276L35.9266 8.94832C35.793 9.08188 35.5259 9.08188 35.2588 8.94832L31.9199 7.61276L28.581 8.94832C28.4474 9.08188 28.1803 9.08188 27.9132 8.94832L24.3072 7.47921C23.9065 7.34565 23.6394 6.81143 23.773 6.41076C23.9065 6.01009 24.4407 5.74298 24.8414 5.87653L28.1803 7.21209L31.5192 5.87653C31.6528 5.74298 31.9199 5.74298 32.187 5.87653L35.5259 7.21209L38.8648 5.87653C38.9983 5.74298 39.2655 5.74298 39.5326 5.87653L43.1386 7.34565C43.5392 7.47921 43.8064 8.01343 43.6728 8.4141C43.5392 8.81476 43.2721 8.94832 42.8715 8.94832Z" fill="#1E1E1E"/>
<path d="M7.34559 70.3839C6.94492 70.3839 6.54425 69.9833 6.54425 69.5826V51.5526C6.54425 51.1519 6.94492 50.7512 7.34559 50.7512C7.74625 50.7512 8.14692 51.1519 8.14692 51.5526V69.449C8.14692 69.9833 7.87981 70.3839 7.34559 70.3839Z" fill="#1E1E1E"/>
<path d="M13.8898 63.8397C13.4892 63.8397 13.0885 63.4391 13.0885 63.0384V45.1419C13.0885 44.7412 13.4892 44.3406 13.8898 44.3406C14.2905 44.3406 14.6912 44.7412 14.6912 45.1419V63.0384C14.6912 63.4391 14.4241 63.8397 13.8898 63.8397Z" fill="#1E1E1E"/>
<path d="M20.4341 57.2956C20.0334 57.2956 19.6328 56.8949 19.6328 56.4942V38.5977C19.6328 38.1971 20.0334 37.7964 20.4341 37.7964C20.8348 37.7964 21.2354 38.1971 21.2354 38.5977V56.4942C21.2354 56.8949 20.8348 57.2956 20.4341 57.2956Z" fill="#1E1E1E"/>
<path d="M26.9783 50.7514C26.5777 50.7514 26.177 50.3507 26.177 49.95V32.0535C26.177 31.6529 26.5777 31.2522 26.9783 31.2522C27.379 31.2522 27.7797 31.6529 27.7797 32.0535V49.95C27.7797 50.3507 27.379 50.7514 26.9783 50.7514Z" fill="#1E1E1E"/>
<path d="M33.5225 44.2069C33.1219 44.2069 32.7212 43.8063 32.7212 43.4056V25.5091C32.7212 25.1084 33.1219 24.7078 33.5225 24.7078C33.9232 24.7078 34.3239 25.1084 34.3239 25.5091V43.4056C34.3239 43.8063 33.9232 44.2069 33.5225 44.2069Z" fill="#1E1E1E"/>
<path d="M40.0668 37.6627C39.6661 37.6627 39.2654 37.2621 39.2654 36.8614V18.9649C39.2654 18.5642 39.6661 18.1636 40.0668 18.1636C40.4674 18.1636 40.8681 18.5642 40.8681 18.9649V36.8614C40.8681 37.2621 40.4674 37.6627 40.0668 37.6627Z" fill="#1E1E1E"/>
<path d="M46.611 31.1185C46.2104 31.1185 45.8097 30.7179 45.8097 30.3172V12.4207C45.8097 12.0201 46.2104 11.6194 46.611 11.6194C47.0117 11.6194 47.4124 12.0201 47.4124 12.4207V30.3172C47.4124 30.7179 47.0117 31.1185 46.611 31.1185Z" fill="#1E1E1E"/>
<path d="M53.0217 24.5744C52.6211 24.5744 52.2204 24.1737 52.2204 23.773V5.87653C52.2204 5.47586 52.6211 5.0752 53.0217 5.0752C53.4224 5.0752 53.8231 5.47586 53.8231 5.87653V23.773C53.9566 24.3072 53.556 24.5744 53.0217 24.5744Z" fill="#1E1E1E"/>
<path d="M59.5659 18.03C59.1653 18.03 58.7646 17.6294 58.7646 17.2287V3.87311C58.7646 3.47245 59.1653 3.07178 59.5659 3.07178C59.9666 3.07178 60.3673 3.47245 60.3673 3.87311V17.2287C60.5008 17.7629 60.1001 18.03 59.5659 18.03Z" fill="#1E1E1E"/>
<path d="M66.1102 11.6194C65.7095 11.6194 65.3088 11.2187 65.3088 10.818V3.87311C65.3088 3.47245 65.7095 3.07178 66.1102 3.07178C66.5108 3.07178 66.9115 3.47245 66.9115 3.87311V10.6845C67.0451 11.2187 66.6444 11.6194 66.1102 11.6194Z" fill="#1E1E1E"/>
<path d="M69.5826 8.01332H51.6861C51.2854 8.01332 50.8848 7.61265 50.8848 7.21198C50.8848 6.81131 51.2854 6.41064 51.6861 6.41064H69.5826C69.9833 6.41064 70.3839 6.81131 70.3839 7.21198C70.5175 7.7462 70.1168 8.01332 69.5826 8.01332Z" fill="#1E1E1E"/>
<path d="M63.172 14.5575H45.2755C44.8748 14.5575 44.4741 14.1568 44.4741 13.7562C44.4741 13.3555 44.8748 12.9548 45.2755 12.9548H63.172C63.5726 12.9548 63.9733 13.3555 63.9733 13.7562C63.9733 14.2904 63.5726 14.5575 63.172 14.5575Z" fill="#1E1E1E"/>
<path d="M56.6277 21.1017H38.7312C38.3305 21.1017 37.9299 20.701 37.9299 20.3004C37.9299 19.8997 38.3305 19.499 38.7312 19.499H56.6277C57.0284 19.499 57.429 19.8997 57.429 20.3004C57.429 20.701 57.0284 21.1017 56.6277 21.1017Z" fill="#1E1E1E"/>
<path d="M50.0835 27.6461H32.187C31.7863 27.6461 31.3856 27.2455 31.3856 26.8448C31.3856 26.4441 31.7863 26.0435 32.187 26.0435H50.0835C50.4841 26.0435 50.8848 26.4441 50.8848 26.8448C50.8848 27.2455 50.4841 27.6461 50.0835 27.6461Z" fill="#1E1E1E"/>
<path d="M43.5392 34.1903H25.6427C25.242 34.1903 24.8414 33.7897 24.8414 33.389C24.8414 32.9883 25.242 32.5876 25.6427 32.5876H43.5392C43.9399 32.5876 44.3405 32.9883 44.3405 33.389C44.3405 33.7897 43.9399 34.1903 43.5392 34.1903Z" fill="#1E1E1E"/>
<path d="M36.995 40.7345H19.0985C18.6978 40.7345 18.2972 40.3338 18.2972 39.9332C18.2972 39.5325 18.6978 39.1318 19.0985 39.1318H36.995C37.3957 39.1318 37.7963 39.5325 37.7963 39.9332C37.7963 40.3338 37.3957 40.7345 36.995 40.7345Z" fill="#1E1E1E"/>
<path d="M30.4508 47.2787H12.5543C12.1536 47.2787 11.7529 46.878 11.7529 46.4774C11.7529 46.0767 12.1536 45.676 12.5543 45.676H30.4508C30.8514 45.676 31.2521 46.0767 31.2521 46.4774C31.2521 46.878 30.985 47.2787 30.4508 47.2787Z" fill="#1E1E1E"/>
<path d="M23.9065 53.8229H6.01001C5.60935 53.8229 5.20868 53.4222 5.20868 53.0216C5.20868 52.6209 5.60935 52.2202 6.01001 52.2202H23.9065C24.3072 52.2202 24.7078 52.6209 24.7078 53.0216C24.7078 53.4222 24.4407 53.8229 23.9065 53.8229Z" fill="#1E1E1E"/>
<path d="M17.3623 60.3673H3.87311C3.47245 60.3673 3.07178 59.9666 3.07178 59.566C3.07178 59.1653 3.47245 58.7646 3.87311 58.7646H17.3623C17.7629 58.7646 18.1636 59.1653 18.1636 59.566C18.2972 59.9666 17.8965 60.3673 17.3623 60.3673Z" fill="#1E1E1E"/>
<path d="M10.818 66.9115H3.87311C3.47245 66.9115 3.07178 66.5108 3.07178 66.1102C3.07178 65.7095 3.47245 65.3088 3.87311 65.3088H10.818C11.2187 65.3088 11.6194 65.7095 11.6194 66.1102C11.7529 66.5108 11.3522 66.9115 10.818 66.9115Z" fill="#1E1E1E"/>
<path d="M61.035 58.4975C60.1002 58.4975 59.2988 58.0969 58.7646 57.4291C58.2304 56.7613 57.9633 55.96 57.9633 55.0251L59.6995 40.8681C59.833 39.2655 61.1686 38.197 62.7713 38.197C63.7062 38.197 64.641 38.5977 65.1753 39.399L73.7229 50.7513C74.3906 51.5526 74.5242 52.6211 74.1235 53.556C73.8564 54.4908 73.0551 55.2922 71.9866 55.5593L61.7028 58.364C61.5693 58.4975 61.3022 58.4975 61.035 58.4975ZM62.7713 39.9332C62.1035 39.9332 61.4357 40.3339 61.4357 41.1353L59.6995 55.2922C59.6995 55.6929 59.833 56.0935 60.1001 56.3606C60.5008 56.7613 61.035 56.8948 61.5693 56.7613L71.8531 53.9566C72.2537 53.8231 72.6544 53.556 72.788 53.0217C72.9215 52.6211 72.9215 52.0868 72.5208 51.6862L63.9733 40.3339C63.5726 39.9332 63.0384 39.9332 62.7713 39.9332Z" fill="#1E1E1E"/>
<path d="M67.8464 61.035C67.4457 61.035 67.1786 60.7679 67.045 60.3672L64.2404 49.8163C64.1068 49.4157 64.3739 48.8814 64.7746 48.7479C65.1753 48.6143 65.7095 48.8814 65.843 49.2821L68.6477 59.833C68.7813 60.2337 68.5142 60.7679 68.1135 60.9015C67.9799 61.035 67.9799 61.035 67.8464 61.035Z" fill="#1E1E1E"/>
<path d="M68.3806 71.586C68.2471 71.586 68.1135 71.586 67.9799 71.4525C67.8464 71.3189 67.7128 71.1854 67.5793 70.9182L64.9082 60.9016C64.7746 60.5009 65.0417 59.9667 65.4424 59.8331L69.7162 58.6311C69.9833 58.6311 70.1168 58.6311 70.384 58.7647C70.5175 58.8982 70.6511 59.0318 70.7846 59.2989L73.4557 69.3156C73.5893 69.7162 73.3222 70.2505 72.9215 70.384L68.6477 71.586C68.6477 71.586 68.5142 71.586 68.3806 71.586ZM66.7779 61.3022L69.0484 69.7162L71.7195 69.0485L69.4491 60.6344L66.7779 61.3022Z" fill="#1E1E1E"/>
<path d="M28.7145 72.788C28.4474 72.788 28.3139 72.6545 28.1803 72.5209C27.9132 72.2538 27.9132 71.7196 28.1803 71.3189L54.0902 45.4091C54.3573 45.142 54.8915 45.142 55.2922 45.4091C55.5593 45.6762 55.5593 46.2104 55.2922 46.6111L29.2488 72.5209C29.1152 72.6545 28.9816 72.788 28.7145 72.788Z" fill="#1E1E1E"/>
<path d="M47.5459 65.843C47.2788 65.843 47.1452 65.7094 47.0117 65.5759C46.7446 65.3088 46.7446 64.7746 47.0117 64.3739L52.4875 58.8981C52.7546 58.631 53.2888 58.631 53.6895 58.8981C53.9566 59.1652 53.9566 59.6994 53.6895 60.1001L48.0801 65.5759C47.9466 65.843 47.6795 65.843 47.5459 65.843Z" fill="#1E1E1E"/>
</g>
<defs>
<clipPath id="clip0_142_455">
<rect width="80" height="80" fill="white"/>
</clipPath>
</defs>
</svg>
