<svg width="85" height="80" viewBox="0 0 85 80" fill="none" xmlns="http://www.w3.org/2000/svg">
<g clip-path="url(#clip0_142_315)">
<path d="M83.6801 80H74.309C73.9131 80 73.5171 79.6046 73.5171 79.2092V0.790774C73.5171 0.395387 73.9131 0 74.309 0H83.6801C84.3401 0 85 0.527183 85 1.31796V78.682C85 79.341 84.3401 80 83.6801 80ZM75.1009 78.2867H83.2842V1.71334H75.1009V78.2867Z" fill="#1E1E1E"/>
<path d="M80.6444 79.9999C80.2484 79.9999 79.8525 79.6046 79.8525 79.2092C79.8525 78.1548 79.3245 77.6276 78.6646 76.9686C77.8726 76.1779 76.9487 75.3871 76.9487 73.542C76.9487 71.8286 77.8726 70.906 78.6646 70.1153C79.3245 69.4563 79.8525 68.9291 79.8525 67.8747C79.8525 66.8204 79.3245 66.2932 78.6646 65.6342C77.8726 64.8434 76.9487 64.0527 76.9487 62.2075C76.9487 61.8121 77.3447 61.4167 77.7407 61.4167C78.1366 61.4167 78.5326 61.8121 78.5326 62.2075C78.5326 63.2619 79.0605 63.7891 79.7205 64.4481C80.5124 65.2388 81.4363 66.0296 81.4363 67.8747C81.4363 69.5881 80.5124 70.5107 79.7205 71.3014C79.0605 71.9604 78.5326 72.4876 78.5326 73.542C78.5326 74.5963 79.0605 75.1235 79.7205 75.7825C80.5124 76.5733 81.4363 77.364 81.4363 79.2092C81.4363 79.6046 81.0403 79.9999 80.6444 79.9999Z" fill="#1E1E1E"/>
<path d="M79.1925 60.3625C78.9285 60.3625 78.7966 60.2307 78.6646 60.0989C78.4006 59.8353 78.4006 59.3081 78.6646 58.9127C79.3245 58.2537 79.8525 57.7266 79.8525 56.6722C79.8525 55.6178 79.3245 55.0906 78.6646 54.4317C77.8726 53.6409 76.9487 52.8501 76.9487 51.005C76.9487 49.2916 77.8726 48.3691 78.6646 47.5783C79.3245 46.9193 79.8525 46.3921 79.8525 45.3378C79.8525 44.2834 79.3245 43.7562 78.6646 43.0972C77.8726 42.3065 76.9487 41.5157 76.9487 39.6706C76.9487 37.9572 77.8726 37.0346 78.6646 36.2439C79.3245 35.5849 79.8525 35.0577 79.8525 34.0033C79.8525 32.949 79.3245 32.4218 78.6646 31.7628C77.8726 30.972 76.9487 30.1813 76.9487 28.3361C76.9487 26.6228 77.8726 25.7002 78.6646 24.9094C79.3245 24.2505 79.8525 23.7233 79.8525 22.6689C79.8525 21.6145 79.3245 21.0874 78.6646 20.4284C78.4006 20.1648 78.2686 19.6376 78.6646 19.2422C78.9285 18.9786 79.4565 18.8468 79.8525 19.2422C80.6444 20.033 81.5683 20.8238 81.5683 22.6689C81.5683 24.3822 80.6444 25.3048 79.8525 26.0956C79.1925 26.7546 78.6646 27.2818 78.6646 28.3361C78.6646 29.3905 79.1925 29.9177 79.8525 30.5766C80.6444 31.3674 81.5683 32.1582 81.5683 34.0033C81.5683 35.7167 80.6444 36.6392 79.8525 37.43C79.1925 38.089 78.6646 38.6162 78.6646 39.6706C78.6646 40.7249 79.1925 41.2521 79.8525 41.9111C80.6444 42.7019 81.5683 43.4926 81.5683 45.3378C81.5683 47.1829 80.6444 47.9737 79.8525 48.7645C79.1925 49.4234 78.6646 49.9506 78.6646 51.005C78.6646 52.0593 79.1925 52.5865 79.8525 53.2455C80.6444 54.0363 81.5683 54.8271 81.5683 56.6722C81.5683 58.3855 80.6444 59.3081 79.8525 60.0989C79.5885 60.3625 79.4565 60.3625 79.1925 60.3625Z" fill="#1E1E1E"/>
<path d="M77.7407 18.4514C77.3447 18.4514 76.9487 18.056 76.9487 17.6606C76.9487 15.9472 77.8726 15.0247 78.6646 14.2339C79.3245 13.5749 79.8525 13.0477 79.8525 11.9934C79.8525 10.939 79.3245 10.4118 78.6646 9.75284C77.8726 8.96207 76.9487 8.17129 76.9487 6.32615C76.9487 4.61281 77.8726 3.69024 78.6646 2.89947C79.3245 2.24049 79.8525 1.7133 79.8525 0.658938C79.8525 0.263551 80.2484 -0.131836 80.6444 -0.131836C81.0403 -0.131836 81.4363 0.263551 81.4363 0.658938C81.4363 2.37228 80.5124 3.29485 79.7205 4.08563C79.0605 4.74461 78.5326 5.27179 78.5326 6.32615C78.5326 7.38052 79.0605 7.9077 79.7205 8.56668C80.5124 9.35746 81.4363 10.1482 81.4363 11.9934C81.4363 13.8385 80.5124 14.6293 79.7205 15.4201C79.0605 16.079 78.5326 16.6062 78.5326 17.6606C78.6646 18.056 78.2686 18.4514 77.7407 18.4514Z" fill="#1E1E1E"/>
<path d="M74.309 9.48929H52.5311C52.1351 9.48929 51.7391 9.0939 51.7391 8.69852V1.31796C51.7391 0.658979 52.2671 0 53.059 0H74.309C74.705 0 75.1009 0.395387 75.1009 0.790774V8.56672C75.1009 9.0939 74.837 9.48929 74.309 9.48929ZM53.323 7.77595H73.3851V1.71334H53.323V7.77595Z" fill="#1E1E1E"/>
<path d="M74.309 17.2652H63.3541C62.9581 17.2652 62.5621 16.8698 62.5621 16.4744V8.69849C62.5621 8.3031 62.9581 7.90771 63.3541 7.90771H74.309C74.705 7.90771 75.101 8.3031 75.101 8.69849V16.4744C75.101 17.0016 74.837 17.2652 74.309 17.2652ZM64.278 15.6837H73.5171V9.48926H64.278V15.6837Z" fill="#1E1E1E"/>
<path d="M63.486 17.2652H52.5311C52.1351 17.2652 51.7391 16.8698 51.7391 16.4744V8.69849C51.7391 8.3031 52.1351 7.90771 52.5311 7.90771H63.486C63.882 7.90771 64.278 8.3031 64.278 8.69849V16.4744C64.278 17.0016 63.882 17.2652 63.486 17.2652ZM53.323 15.6837H62.5621V9.48926H53.323V15.6837Z" fill="#1E1E1E"/>
<path d="M74.309 32.949H63.3541C62.9581 32.949 62.5621 32.5537 62.5621 32.1583V24.3823C62.5621 23.9869 62.9581 23.5916 63.3541 23.5916H74.309C74.705 23.5916 75.101 23.9869 75.101 24.3823V32.1583C75.101 32.5537 74.837 32.949 74.309 32.949ZM64.278 31.3675H73.5171V25.1731H64.278V31.3675Z" fill="#1E1E1E"/>
<path d="M63.486 32.949H52.5311C52.1351 32.949 51.7391 32.5537 51.7391 32.1583V24.3823C51.7391 23.9869 52.1351 23.5916 52.5311 23.5916H63.486C63.882 23.5916 64.278 23.9869 64.278 24.3823V32.1583C64.278 32.5537 63.882 32.949 63.486 32.949ZM53.323 31.3675H62.5621V25.1731H53.323V31.3675Z" fill="#1E1E1E"/>
<path d="M74.309 25.1729H52.5311C52.1351 25.1729 51.7391 24.7775 51.7391 24.3822V16.6062C51.7391 16.2108 52.1351 15.8154 52.5311 15.8154H74.309C74.705 15.8154 75.1009 16.2108 75.1009 16.6062V24.3822C75.1009 24.7775 74.837 25.1729 74.309 25.1729ZM53.323 23.4596H73.3851V17.2652H53.323V23.4596Z" fill="#1E1E1E"/>
<path d="M74.309 40.8568H52.5311C52.1351 40.8568 51.7391 40.4614 51.7391 40.066V32.29C51.7391 31.8947 52.1351 31.4993 52.5311 31.4993H74.309C74.705 31.4993 75.1009 31.8947 75.1009 32.29V40.066C75.1009 40.4614 74.837 40.8568 74.309 40.8568ZM53.323 39.1434H73.3851V32.949H53.323V39.1434Z" fill="#1E1E1E"/>
<path d="M74.309 48.6326H63.3541C62.9581 48.6326 62.5621 48.2373 62.5621 47.8419V40.0659C62.5621 39.6705 62.9581 39.2751 63.3541 39.2751H74.309C74.705 39.2751 75.101 39.6705 75.101 40.0659V47.8419C75.101 48.2373 74.837 48.6326 74.309 48.6326ZM64.278 46.9193H73.5171V40.8567H64.278V46.9193Z" fill="#1E1E1E"/>
<path d="M63.486 48.6326H52.5311C52.1351 48.6326 51.7391 48.2373 51.7391 47.8419V40.0659C51.7391 39.6705 52.1351 39.2751 52.5311 39.2751H63.486C63.882 39.2751 64.278 39.6705 64.278 40.0659V47.8419C64.278 48.2373 63.882 48.6326 63.486 48.6326ZM53.323 46.9193H62.5621V40.8567H53.323V46.9193Z" fill="#1E1E1E"/>
<path d="M74.309 56.4085H52.5311C52.1351 56.4085 51.7391 56.0131 51.7391 55.6177V47.8418C51.7391 47.4464 52.1351 47.051 52.5311 47.051H74.309C74.705 47.051 75.1009 47.4464 75.1009 47.8418V55.6177C75.1009 56.1449 74.837 56.4085 74.309 56.4085ZM53.323 54.827H73.3851V48.6326H53.323V54.827Z" fill="#1E1E1E"/>
<path d="M74.309 64.3162H63.3541C62.9581 64.3162 62.5621 63.9208 62.5621 63.5255V55.7495C62.5621 55.3541 62.9581 54.9587 63.3541 54.9587H74.309C74.705 54.9587 75.101 55.3541 75.101 55.7495V63.5255C75.101 63.9208 74.837 64.3162 74.309 64.3162ZM64.278 62.6029H73.5171V56.4085H64.278V62.6029Z" fill="#1E1E1E"/>
<path d="M63.486 64.3162H52.5311C52.1351 64.3162 51.7391 63.9208 51.7391 63.5255V55.7495C51.7391 55.3541 52.1351 54.9587 52.5311 54.9587H63.486C63.882 54.9587 64.278 55.3541 64.278 55.7495V63.5255C64.278 63.9208 63.882 64.3162 63.486 64.3162ZM53.323 62.6029H62.5621V56.4085H53.323V62.6029Z" fill="#1E1E1E"/>
<path d="M74.309 80.0001H63.3541C62.9581 80.0001 62.5621 79.6047 62.5621 79.2093V71.4334C62.5621 71.038 62.9581 70.6426 63.3541 70.6426H74.309C74.705 70.6426 75.101 71.038 75.101 71.4334V79.0775C75.101 79.6047 74.837 80.0001 74.309 80.0001ZM64.278 78.2867H73.5171V72.0923H64.278V78.2867Z" fill="#1E1E1E"/>
<path d="M63.486 80H53.059C52.3991 80 51.7391 79.4729 51.7391 78.6821V71.3015C51.7391 70.9061 52.1351 70.5107 52.5311 70.5107H63.486C63.882 70.5107 64.278 70.9061 64.278 71.3015V79.0775C64.278 79.6046 63.882 80 63.486 80ZM53.323 78.2867H62.5621V72.0923H53.323V78.2867Z" fill="#1E1E1E"/>
<path d="M74.309 72.0924H52.5311C52.1351 72.0924 51.7391 71.697 51.7391 71.3016V63.5256C51.7391 63.1303 52.1351 62.7349 52.5311 62.7349H74.309C74.705 62.7349 75.1009 63.1303 75.1009 63.5256V71.3016C75.1009 71.697 74.837 72.0924 74.309 72.0924ZM53.323 70.5108H73.3851V64.3164H53.323V70.5108Z" fill="#1E1E1E"/>
<path d="M32.4691 69.72C32.2051 69.72 32.0731 69.5882 31.9411 69.4564C31.6772 69.1928 31.6772 68.6656 31.9411 68.2702L51.3433 48.8962L31.9411 29.5223C31.6772 29.2587 31.6772 28.7315 31.9411 28.3361C32.2051 28.0725 32.7331 28.0725 33.129 28.3361L53.1911 48.3691C53.4551 48.6327 53.4551 49.1598 53.1911 49.5552L33.129 69.4564C32.8651 69.5882 32.7331 69.72 32.4691 69.72Z" fill="#1E1E1E"/>
<path d="M32.469 36.5075C32.0731 36.5075 31.6771 36.1121 31.6771 35.7167V28.9951C31.6771 28.5997 32.0731 28.2043 32.469 28.2043H39.2004C39.5964 28.2043 39.9923 28.5997 39.9923 28.9951C39.9923 29.3905 39.5964 29.7859 39.2004 29.7859H33.261V35.7167C33.393 36.1121 32.997 36.5075 32.469 36.5075Z" fill="#1E1E1E"/>
<path d="M45.7998 38.6161C45.5359 38.6161 45.4039 38.4843 45.2719 38.3525C45.0079 38.0889 45.0079 37.5617 45.2719 37.1663L51.3433 31.1037L31.9411 11.598C31.6772 11.3344 31.6772 10.8072 31.9411 10.4118C32.2051 10.1482 32.7331 10.1482 33.129 10.4118L53.1911 30.4448C53.4551 30.7083 53.4551 31.2355 53.1911 31.6309L46.4598 38.3525C46.1958 38.4843 46.0638 38.6161 45.7998 38.6161Z" fill="#1E1E1E"/>
<path d="M32.4691 51.9275C32.2051 51.9275 32.0731 51.7957 31.9411 51.6639C31.6772 51.4003 31.6772 50.8731 31.9411 50.4778L43.0281 39.4069C43.2921 39.1433 43.82 39.1433 44.216 39.4069C44.48 39.6705 44.48 40.1977 44.216 40.5931L33.129 51.6639C32.8651 51.7957 32.7331 51.9275 32.4691 51.9275Z" fill="#1E1E1E"/>
<path d="M32.469 18.5832C32.0731 18.5832 31.6771 18.1878 31.6771 17.7924V11.0708C31.6771 10.6754 32.0731 10.28 32.469 10.28H39.2004C39.5964 10.28 39.9923 10.6754 39.9923 11.0708C39.9923 11.4662 39.5964 11.8616 39.2004 11.8616H33.261V17.7924C33.393 18.3196 32.997 18.5832 32.469 18.5832Z" fill="#1E1E1E"/>
<path d="M12.6709 23.4597C11.351 23.4597 10.2951 22.9326 9.89911 21.8782C9.50315 21.0874 9.63514 20.1648 10.0311 19.3741C10.4271 18.5833 11.219 17.9243 12.0109 17.5289C12.6709 17.2653 13.3308 17.1335 13.8587 17.1335C15.1786 17.1335 16.2345 17.6607 16.6305 18.7151C17.2904 20.1648 16.3665 22.1418 14.5187 23.0644C13.9907 23.3279 13.3308 23.4597 12.6709 23.4597ZM13.9907 18.7151C13.5948 18.7151 13.1988 18.8469 12.8028 18.9787C12.2749 19.2423 11.7469 19.6377 11.615 20.0331C11.483 20.2966 11.351 20.692 11.483 21.0874C11.615 21.4828 12.1429 21.7464 12.8028 21.7464C13.1988 21.7464 13.5948 21.6146 13.9907 21.4828C15.0466 20.9556 15.7066 20.0331 15.3106 19.3741C15.0466 18.9787 14.5187 18.7151 13.9907 18.7151Z" fill="#1E1E1E"/>
<path d="M22.9659 18.7151C21.646 18.7151 20.5901 18.1879 20.1942 17.1336C19.7982 16.3428 19.9302 15.4202 20.3261 14.6294C20.7221 13.8387 21.514 13.1797 22.306 12.7843C22.9659 12.5207 23.6258 12.3889 24.1538 12.3889C25.4737 12.3889 26.5296 12.9161 26.9255 13.9705C27.5855 15.4202 26.6615 17.3972 24.8137 18.3197C24.2858 18.5833 23.6258 18.7151 22.9659 18.7151ZM24.2858 13.9705C23.8898 13.9705 23.4938 14.1023 23.0979 14.2341C22.5699 14.4976 22.042 14.893 21.91 15.2884C21.778 15.552 21.646 15.9474 21.778 16.3428C21.91 16.7382 22.4379 17.0018 23.0979 17.0018C23.4938 17.0018 23.8898 16.87 24.2858 16.7382C25.3417 16.211 26.0016 15.2884 25.6056 14.6294C25.3417 14.2341 24.9457 13.9705 24.2858 13.9705Z" fill="#1E1E1E"/>
<path d="M15.9706 19.9012C15.7066 19.9012 15.3106 19.7694 15.1786 19.374L9.89913 7.90775C9.63515 7.38057 9.89913 6.5898 10.5591 6.19441L19.9302 1.84515C20.5901 1.58156 21.382 1.84515 21.646 2.50413L26.9255 13.9704C27.0575 14.3657 26.9255 14.8929 26.5296 15.0247C26.1336 15.1565 25.6056 15.0247 25.4737 14.6293L20.3261 3.55849L11.615 7.64416L16.7625 18.715C16.8945 19.1104 16.7625 19.6376 16.3665 19.7694C16.2345 19.9012 16.1025 19.9012 15.9706 19.9012Z" fill="#1E1E1E"/>
<path d="M5.01558 44.8107C4.09167 44.8107 3.29974 44.5471 2.50782 44.1517C1.58391 43.6245 0.79198 42.8338 0.396017 41.7794C5.41359e-05 40.725 5.41359e-05 39.8025 0.528004 38.8799C1.05595 37.9573 2.24384 37.2983 3.43173 37.2983C4.35564 37.2983 5.14757 37.5619 5.9395 37.9573C7.91931 39.2753 8.84322 41.5158 7.91931 43.2291C7.39136 44.1517 6.33546 44.8107 5.01558 44.8107ZM3.29974 39.0117C2.63981 39.0117 1.97987 39.2753 1.71589 39.6707C1.45192 40.1978 1.58391 40.725 1.71589 41.1204C2.11186 41.6476 2.63981 42.1748 3.29974 42.5702C3.82769 42.8338 4.48763 43.0974 5.01558 43.0974C5.67552 43.0974 6.33546 42.8338 6.59943 42.4384C7.12738 41.6476 6.46745 40.1978 5.14757 39.5389C4.48763 39.1435 3.95968 39.0117 3.29974 39.0117Z" fill="#1E1E1E"/>
<path d="M16.7625 51.5321C15.8386 51.5321 15.0467 51.2685 14.2548 50.8731C13.3309 50.346 12.5389 49.5552 12.143 48.5008C11.747 47.4465 11.747 46.5239 12.275 45.6013C12.8029 44.6787 13.9908 44.0198 15.1787 44.0198C16.1026 44.0198 16.8945 44.2834 17.6864 44.6788C19.7982 45.8649 20.7222 48.2372 19.7982 49.8188C19.2703 51.0049 18.0824 51.5321 16.7625 51.5321ZM15.1787 45.7331C14.5187 45.7331 13.8588 45.9967 13.5948 46.3921C13.3309 46.9193 13.4628 47.4465 13.5948 47.8418C13.8588 48.5008 14.3868 49.028 15.0467 49.4234C15.5746 49.687 16.2346 49.9506 16.7625 49.9506C17.4225 49.9506 18.0824 49.687 18.3464 49.2916C18.8743 48.5008 18.2144 47.0511 16.8945 46.3921C16.3666 45.9967 15.7066 45.7331 15.1787 45.7331Z" fill="#1E1E1E"/>
<path d="M19.0062 50.4778C18.8742 50.4778 18.7423 50.4778 18.6103 50.346C18.2143 50.0824 18.0823 49.5552 18.3463 49.1598L25.7376 36.2439L15.4426 30.3131L7.91928 43.229C7.6553 43.6244 7.12735 43.7562 6.73139 43.4926C6.33543 43.229 6.20344 42.7019 6.46741 42.3065L14.1227 29.1269C14.2547 28.8633 14.5187 28.5997 14.9146 28.4679C15.3106 28.3361 15.5746 28.4679 15.9705 28.5997L26.9255 34.9259C27.5854 35.3213 27.7174 36.1121 27.4534 36.7711L19.7982 50.0824C19.6662 50.346 19.2702 50.4778 19.0062 50.4778Z" fill="#1E1E1E"/>
<path d="M16.7625 78.5501C15.9705 78.5501 15.3106 78.2865 14.7826 77.7593C13.5948 76.5732 13.8587 74.4644 15.3106 72.8829C16.1025 72.0921 17.1584 71.5649 18.2143 71.5649C19.0062 71.5649 19.6662 71.8285 20.1941 72.3557C20.8541 73.0147 21.118 73.8055 20.9861 74.728C20.8541 75.6506 20.4581 76.4414 19.6662 77.1004C18.8743 78.0229 17.8184 78.5501 16.7625 78.5501ZM18.2143 73.2783C17.6864 73.2783 17.0264 73.5419 16.4985 74.0691C15.7066 74.8598 15.4426 76.046 15.9705 76.5732C16.2345 76.8368 16.4985 76.8368 16.7625 76.8368C17.2904 76.8368 17.9503 76.5732 18.4783 76.046C18.8743 75.6506 19.1382 75.1234 19.2702 74.5962C19.2702 74.3327 19.2702 73.9373 19.0062 73.5419C18.8743 73.2783 18.4783 73.2783 18.2143 73.2783Z" fill="#1E1E1E"/>
<path d="M24.9457 70.3787C24.1538 70.3787 23.4938 70.1151 22.9659 69.588C21.778 68.4018 22.042 66.2931 23.4938 64.7115C24.2857 63.9207 25.3416 63.3936 26.3975 63.3936C27.1895 63.3936 27.8494 63.6571 28.3774 64.1843C29.0373 64.8433 29.3013 65.6341 29.1693 66.5567C29.0373 67.4792 28.6413 68.27 27.8494 68.929C26.9255 69.9833 25.8696 70.3787 24.9457 70.3787ZM26.3975 65.1069C25.8696 65.1069 25.2097 65.3705 24.6817 65.8977C23.8898 66.6884 23.6258 67.8746 24.1538 68.4018C24.4177 68.6654 24.6817 68.6654 24.9457 68.6654C25.4736 68.6654 26.1336 68.4018 26.6615 67.8746C27.0575 67.4792 27.3215 66.952 27.4534 66.4249C27.4534 66.1613 27.4534 65.7659 27.1895 65.3705C26.9255 65.2387 26.6615 65.1069 26.3975 65.1069Z" fill="#1E1E1E"/>
<path d="M19.6662 73.8055C19.4022 73.8055 19.2702 73.6737 19.1382 73.5419L10.0311 64.5798C9.50314 64.0526 9.50314 63.2619 10.0311 62.7347L17.4224 55.3541C17.9503 54.8269 18.7423 54.8269 19.2702 55.3541L28.2454 64.3162C28.5094 64.5798 28.5094 65.107 28.2454 65.5024C27.9814 65.766 27.4535 65.766 27.0575 65.5024L18.3463 56.6721L11.351 63.6573L20.0622 72.3558C20.3261 72.6194 20.3261 73.1465 20.0622 73.5419C20.0622 73.6737 19.7982 73.8055 19.6662 73.8055Z" fill="#1E1E1E"/>
</g>
<defs>
<clipPath id="clip0_142_315">
<rect width="85" height="80" fill="white"/>
</clipPath>
</defs>
</svg>
