<svg width="64" height="64" viewBox="0 0 64 64" fill="none" xmlns="http://www.w3.org/2000/svg">
<g clip-path="url(#clip0_126_739)">
<path d="M0.016 33.4386C0.008 33.46 0 33.484 0 33.5106V52.1772C0 52.6546 0.256 53.0972 0.672 53.3346L18.6666 63.62V44.9534L0.672 34.668C0.218625 34.412 -0.010625 33.924 0.016 33.4386Z" fill="black"/>
<path d="M13.536 36.884C13.784 37.2786 14.2134 37.508 14.664 37.508C14.7706 37.508 14.88 37.4946 14.9866 37.468L55.4906 27.3426C57.3573 26.876 58.6613 25.2066 58.6613 23.2732C58.6613 21.6786 57.7733 20.2439 56.3466 19.5292L48.9706 15.8412L47.7093 18.9959C47.3839 19.8039 46.7972 20.4945 46.0532 20.9399L32.7199 28.9399C32.5039 29.0679 32.2693 29.1292 32.0345 29.1292C31.5811 29.1292 31.1411 28.8999 30.8905 28.4812C30.5119 27.8492 30.7171 27.0306 31.3465 26.6519L44.6799 18.6519C44.9279 18.5025 45.1253 18.2705 45.2345 18.0012L46.5785 14.6412L47.7119 11.8066L48.5039 11.4092C48.8932 11.6412 49.3305 11.7932 49.7999 11.7932C50.0479 11.7932 50.2985 11.7586 50.5465 11.6866L60.8239 8.74799C62.6905 8.21462 63.9945 6.48399 63.9945 4.54262C64 2.13999 62.0374 0.177368 59.6266 0.177368H58.4C57.408 0.177368 56.4374 0.518743 55.6666 1.13474L48.1893 7.11612C47.5679 7.61212 47.2399 8.32949 47.2159 9.07612L46.0692 9.64949C45.7786 9.79612 45.5492 10.0441 45.4266 10.3481L44.1866 13.4467L40.4586 11.5827C37.616 10.1614 33.9653 10.9294 31.936 13.3641L13.64 35.3214C13.272 35.7666 13.2294 36.396 13.536 36.884Z" fill="black"/>
<path d="M1.99456 32.3559L10.9919 37.4973C10.4986 36.1479 10.6959 34.6947 11.5919 33.6199L13.4293 31.4146C13.7999 30.9692 13.8399 30.3346 13.5279 29.8439C13.2159 29.3533 12.6213 29.1213 12.0613 29.2733L0.997314 32.2253C1.32256 32.1399 1.67994 32.1746 1.99456 32.3559Z" fill="black"/>
<path d="M21.3334 45.156V63.8226L63.064 50.7826C63.6214 50.612 64 50.0946 64 49.5106V31.7454L21.3334 45.156Z" fill="black"/>
<path d="M60.6666 28.1694C60.1652 27.8814 59.5332 27.9534 59.104 28.3428C58.2693 29.1082 57.2453 29.6602 56.1413 29.9348L15.64 40.06C15.6053 40.068 15.5573 40.0734 15.512 40.0787L20.1546 42.732L62.736 29.3507L60.6666 28.1694Z" fill="black"/>
</g>
<defs>
<clipPath id="clip0_126_739">
<rect width="64" height="64" fill="white"/>
</clipPath>
</defs>
</svg>
