<svg width="74" height="74" viewBox="0 0 74 74" fill="none" xmlns="http://www.w3.org/2000/svg">
<path d="M34.6875 41.625V39.3125H16.1875V41.625C16.1875 46.7336 20.3288 50.875 25.4375 50.875C30.5462 50.875 34.6875 46.7336 34.6875 41.625Z" fill="black"/>
<path d="M13.875 37H37C38.2782 37 39.3125 35.9657 39.3125 34.6875C39.3125 33.4093 38.2782 32.375 37 32.375C37 27.6362 34.1427 23.5744 30.0625 21.7887V26.5938C30.0625 27.2328 29.5453 27.75 28.9062 27.75C28.2672 27.75 27.75 27.2328 27.75 26.5938V21.0455C27.0026 20.8938 26.2296 20.8125 25.4375 20.8125C24.6454 20.8125 23.8724 20.8938 23.125 21.0455V26.5938C23.125 27.2328 22.6078 27.75 21.9688 27.75C21.3297 27.75 20.8125 27.2328 20.8125 26.5938V21.7887C16.7323 23.5744 13.875 27.6362 13.875 32.375C12.5968 32.375 11.5625 33.4093 11.5625 34.6875C11.5625 35.9657 12.5968 37 13.875 37Z" fill="black"/>
<path d="M68.0968 11.8064L54.2218 4.8689C53.5714 4.5437 52.8036 4.5437 52.1532 4.8689L38.2782 11.8064C37.4946 12.1993 37 12.9988 37 13.875C37 23.3824 41.1891 32.3231 48.4902 38.4092L51.7061 41.0898C52.1351 41.4466 52.6613 41.625 53.1875 41.625C53.7137 41.625 54.2399 41.4466 54.6689 41.0898L57.8825 38.4092C65.1859 32.3231 69.375 23.3824 69.375 13.875C69.375 12.9988 68.8804 12.1993 68.0968 11.8064ZM59.9601 15.6252L53.0226 27.1877C52.8397 27.4948 52.5258 27.6981 52.1735 27.741C52.1261 27.7477 52.0787 27.75 52.0312 27.75C51.7264 27.75 51.4328 27.6303 51.2137 27.4113L46.5887 22.7863C46.1371 22.3346 46.1371 21.6029 46.5887 21.1512C47.0404 20.6996 47.7721 20.6996 48.2238 21.1512L51.8009 24.7284L57.9774 14.4373C58.3093 13.8885 59.0252 13.7124 59.5627 14.0399C60.1115 14.3673 60.2899 15.0787 59.9601 15.6252Z" fill="black"/>
<path d="M16.1875 50.875H34.6875V60.125H16.1875V50.875Z" fill="black"/>
<path d="M11.5625 62.4375C11.5625 61.1603 12.5978 60.125 13.875 60.125V50.875C8.7663 50.875 4.625 55.0163 4.625 60.125V69.375H11.5625V62.4375Z" fill="black"/>
<path d="M37 50.875V60.125C38.2772 60.125 39.3125 61.1603 39.3125 62.4375V69.375H46.25V60.125C46.25 55.0163 42.1087 50.875 37 50.875Z" fill="black"/>
<path d="M13.875 62.4375H37V69.375H13.875V62.4375Z" fill="black"/>
</svg>
