<svg width="56" height="57" viewBox="0 0 56 57" fill="none" xmlns="http://www.w3.org/2000/svg">
<path fill-rule="evenodd" clip-rule="evenodd" d="M44.1005 6.97927H52.0753V15.0684H44.1005V6.97927ZM28.1298 54.75H54.6875V45.9599H28.1298V54.75ZM34.4033 29.7299V44.2099H54.6875V29.7299H34.4033ZM41.2203 40.2292C41.2203 40.6508 40.8763 40.9948 40.4546 40.9948H38.836C38.4144 40.9948 38.0704 40.6508 38.0704 40.2292V38.6105C38.0704 38.1889 38.4144 37.8449 38.836 37.8449H40.4546C40.8763 37.8449 41.2203 38.1888 41.2203 38.6105V40.2292ZM41.2203 35.3293C41.2203 35.7509 40.8763 36.0949 40.4546 36.0949H38.836C38.4144 36.0949 38.0704 35.7509 38.0704 35.3293V33.7106C38.0704 33.289 38.4144 32.945 38.836 32.945H40.4546C40.8763 32.945 41.2203 33.289 41.2203 33.7106V35.3293ZM46.12 40.2292C46.12 40.6508 45.7761 40.9948 45.3544 40.9948H43.7358C43.3141 40.9948 42.9702 40.6508 42.9702 40.2292V38.6105C42.9702 38.1889 43.314 37.8449 43.7358 37.8449H45.3544C45.7761 37.8449 46.12 38.1888 46.12 38.6105V40.2292ZM46.12 35.3293C46.12 35.7509 45.7761 36.0949 45.3544 36.0949H43.7358C43.3141 36.0949 42.9702 35.7509 42.9702 35.3293V33.7106C42.9702 33.289 43.314 32.945 43.7358 32.945H45.3544C45.7761 32.945 46.12 33.289 46.12 33.7106V35.3293ZM51.02 40.2292C51.02 40.6508 50.6761 40.9948 50.2544 40.9948H48.6357C48.214 40.9948 47.87 40.6508 47.87 40.2292V38.6105C47.87 38.1889 48.214 37.8449 48.6357 37.8449H50.2544C50.6761 37.8449 51.02 38.1888 51.02 38.6105V40.2292ZM51.02 35.3293C51.02 35.7509 50.6761 36.0949 50.2544 36.0949H48.6357C48.214 36.0949 47.87 35.7509 47.87 35.3293V33.7106C47.87 33.289 48.214 32.945 48.6357 32.945H50.2544C50.6761 32.945 51.02 33.289 51.02 33.7106V35.3293ZM41.4883 16.8183V27.9798H54.6875V16.8183H41.4883ZM47.2129 23.0256C47.2129 23.4472 46.8689 23.7912 46.4473 23.7912H45.1944C44.7728 23.7912 44.4288 23.4473 44.4288 23.0256V21.7726C44.4288 21.3509 44.7728 21.0069 45.1944 21.0069H46.4473C46.8689 21.0069 47.2129 21.3508 47.2129 21.7726V23.0256ZM51.7471 23.0256C51.7471 23.4472 51.4031 23.7912 50.9814 23.7912H49.7284C49.3068 23.7912 48.9628 23.4473 48.9628 23.0256V21.7726C48.9628 21.3509 49.3068 21.0069 49.7284 21.0069H50.9814C51.4031 21.0069 51.7471 21.3508 51.7471 21.7726V23.0256ZM41.3434 14.142L37.0207 10.5265C36.8641 10.3795 36.6535 10.2894 36.4218 10.2894H35.057L19.0987 2.61127V2.25C19.0987 1.76678 18.707 1.375 18.2237 1.375L15.2385 1.37598C14.8521 1.37577 14.4986 1.63356 14.3942 2.02436L14.1621 2.88295L6.56239 9.00894H2.1875C1.70428 9.00894 1.3125 9.40072 1.3125 9.88394V16.0925C1.3125 16.5757 1.70428 16.9675 2.1875 16.9675H8.39606C8.87928 16.9675 9.27106 16.5757 9.27106 16.0925V15.6869H11.3782V49.7603H8.42341C7.94019 49.7603 7.54841 50.1521 7.54841 50.6353V54.75C7.54841 55.2332 7.94019 55.625 8.42341 55.625H22.0535C22.5367 55.625 22.9285 55.2332 22.9285 54.75V50.6352C22.9285 50.152 22.5367 49.7602 22.0535 49.7602H19.0987V15.6869H35.3793V19.5013H33.8172C33.334 19.5013 32.9422 19.8931 32.9422 20.3763V25.2505C32.9422 25.7337 33.334 26.1255 33.8172 26.1255H38.6914C39.1746 26.1255 39.5664 25.7337 39.5664 25.2505V20.3763C39.5664 19.8931 39.1746 19.5013 38.6914 19.5013H37.1293V15.6869L40.7831 15.6854C41.0326 15.6853 41.2803 15.5789 41.453 15.3725C41.7623 15.0025 41.7134 14.4515 41.3434 14.142ZM15.9072 3.125H17.3487V10.2894H13.9704L15.9072 3.125ZM9.01961 9.27012L13.3872 5.74967L12.1599 10.2894H9.27106V9.88394C9.27106 9.64473 9.17514 9.42806 9.01961 9.27012ZM11.0149 13.4487L10.0517 12.0394H12.4242L11.0149 13.4487ZM14.5366 12.4016L16.0718 13.9368H13.0014L14.5366 12.4016ZM13.1281 16.9242L16.9864 20.7824L13.1281 24.6406V16.9242ZM16.9864 32.7235L13.1281 36.5818V28.8653L16.9864 32.7235ZM13.1281 40.8064L16.9864 44.6647L13.1281 48.523V40.8064ZM17.3487 49.7602H14.3654L17.3487 46.7769V49.7602ZM17.3487 42.5524L13.4905 38.6942L17.3487 34.8359V42.5524ZM17.3487 30.6113L13.4905 26.7531L17.3487 22.8949V30.6113ZM17.3487 18.6701L14.3654 15.6868H17.3487V18.6701ZM18.1841 13.5746L16.649 12.0394H19.7193L18.1841 13.5746ZM20.2964 13.9369L21.8316 12.4018L23.3669 13.9369H20.2964ZM25.4791 13.5746L23.9439 12.0394H27.0144L25.4791 13.5746ZM27.5915 13.9369L29.1268 12.4018L30.662 13.9369H27.5915ZM19.0986 10.2894V4.54534L31.0371 10.2894H19.0986ZM32.7742 13.5746L31.2389 12.0394H34.3094L32.7742 13.5746ZM36.2542 13.9369H34.8866L36.4755 12.348L38.3752 13.9369H36.2542Z" fill="black"/>
</svg>
