<svg width="71" height="71" viewBox="0 0 71 71" fill="none" xmlns="http://www.w3.org/2000/svg">
<path fill-rule="evenodd" clip-rule="evenodd" d="M7.09238 9.92667C28.4483 -1.64467 42.5517 -1.64494 63.9075 9.92653V37.4494C63.9075 45.3604 60.6817 51.6535 54.2576 56.2705L35.5001 69.7519L16.7435 56.2708C10.3193 51.6535 7.09238 45.3609 7.09238 37.4494V9.92667ZM46.092 18.5123C43.1469 18.8929 40.2958 18.2231 37.6525 16.0424C36.8056 15.3437 35.6868 15.211 34.8266 15.9292L29.7254 20.1884C29.4338 20.4319 29.243 20.7282 29.3237 21.0977L30.6034 26.9617C32.6912 25.9215 32.6435 23.8122 32.8827 21.5802L32.8799 21.58C32.9862 20.6826 33.6449 20.034 34.6058 19.9637C35.9945 19.8621 37.7067 21.0072 38.9678 22.1554C38.9961 22.1812 39.0228 22.2081 39.0478 22.2362L47.6221 30.9355L48.4047 30.1221L46.092 18.5123ZM22.2903 31.6352L30.3153 39.6603C32.2004 41.5452 34.7158 39.2362 33.0454 37.4229L29.2897 33.6672C28.6443 33.0218 29.6248 32.0414 30.2701 32.6867L37.0251 39.4417C38.7818 41.1986 41.061 39.0131 39.3491 37.3015L32.9677 30.9201C32.3223 30.2747 33.3027 29.2943 33.9481 29.9397L41.6676 37.659C43.429 39.3132 45.6321 37.1855 43.9529 35.4349L36.6288 28.1109C35.9834 27.4655 36.9638 26.4851 37.6092 27.1304L45.0822 34.6035C46.8701 36.4798 49.42 34.2598 47.3652 32.2503L38.2224 22.9743C35.9358 20.891 34.114 20.5824 33.9806 21.7098C33.7034 24.6533 33.7218 27.453 29.7876 28.4224L28.2401 21.3316C28.0708 20.5556 28.4049 19.8479 29.0146 19.339L32.354 16.5509L25.2997 16.528C25.2929 16.5728 25.2853 16.6177 25.2763 16.6627L22.3199 31.5028C22.3111 31.5473 22.3011 31.5914 22.2903 31.6352ZM21.0521 39.3434L19.7807 42.4547L16.4289 42.7025L18.995 44.873L18.1949 48.1373L21.0522 46.3676L23.9095 48.1373L23.1094 44.873L25.6755 42.7025L22.3237 42.4547L21.0521 39.3434ZM49.9479 39.3434L48.6766 42.4547L45.3248 42.7025L47.8909 44.873L47.0908 48.1373L49.9481 46.3676L52.8054 48.1373L52.0053 44.873L54.5713 42.7025L51.2194 42.4547L49.9479 39.3434ZM35.5 44.4593L33.7007 48.8624L28.957 49.2131L32.5887 52.285L31.4563 56.9047L35.5 54.4001L39.5438 56.9047L38.4114 52.285L42.0431 49.2131L37.2994 48.8624L35.5 44.4593ZM22.5059 15.3386L18.7016 14.5808C18.293 14.4994 17.8924 14.767 17.811 15.1754L14.8545 30.0154C14.7731 30.4238 15.0406 30.8245 15.4492 30.9059L19.2535 31.6638C19.662 31.7452 20.0626 31.4775 20.144 31.0691L23.1004 16.229C23.1819 15.8208 22.9143 15.42 22.5059 15.3386ZM48.4941 15.3386C48.0856 15.42 47.8181 15.8206 47.8995 16.2292L50.856 31.0693C50.9374 31.4777 51.338 31.7453 51.7465 31.6639L55.5508 30.9061C55.9594 30.8247 56.2269 30.424 56.1456 30.0155L53.1893 15.1754C53.1079 14.767 52.7072 14.4994 52.2987 14.5808L48.4941 15.3386ZM11.0075 13.0676V36.7973C11.0075 43.6184 13.7897 49.0437 19.3285 53.0248L35.5001 64.648L51.6726 53.0245C57.2113 49.0438 59.9926 43.618 59.9926 36.7973V13.0675C41.5799 3.09084 29.4201 3.09098 11.0075 13.0676Z" fill="black"/>
</svg>
