<svg width="340" height="49" viewBox="0 0 340 49" fill="none" xmlns="http://www.w3.org/2000/svg">
<g clip-path="url(#clip0_141_254)">
<path d="M106.037 0.213867H77.5172C75.7537 0.251322 74.0774 0.97735 72.8564 2.2325C71.6355 3.48765 70.9696 5.1693 71.0052 6.90812H106.037V0.213867Z" fill="#EF6C00"/>
<path d="M82.4856 11.4741V17.8354H106.037C106.049 16.9924 105.888 16.1557 105.564 15.3755C105.24 14.5953 104.759 13.8876 104.151 13.2947C103.543 12.7019 102.82 12.2361 102.025 11.9254C101.231 11.6146 100.38 11.4651 99.5254 11.486L82.4856 11.4741Z" fill="#161616"/>
<path d="M77.5172 22.0089V11.4741H71.0052V22.4846C70.9696 24.0972 71.5846 25.6579 72.7151 26.8239C73.8456 27.9899 75.3993 28.6658 77.0348 28.7032H106.725V22.0089H77.5172Z" fill="#161616"/>
<path d="M189.934 0.213867H154.89V6.90812H189.934V0.213867Z" fill="#161616"/>
<path d="M166.418 11.4741V17.8354H189.934C189.946 16.9924 189.785 16.1557 189.461 15.3755C189.136 14.5953 188.656 13.8876 188.048 13.2947C187.44 12.7019 186.717 12.2361 185.922 11.9254C185.127 11.6146 184.277 11.4651 183.422 11.486L166.418 11.4741Z" fill="#161616"/>
<path d="M161.414 22.0089V11.4741H154.89V22.4846C154.857 24.0964 155.473 25.6552 156.603 26.8205C157.733 27.9858 159.285 28.6627 160.919 28.7032H190.597V22.0089H161.414Z" fill="#161616"/>
<path d="M143.084 0.213867H110.053V6.90812H151.537C151.084 5.02414 150.007 3.34294 148.476 2.1305C146.945 0.918056 145.047 0.24361 143.084 0.213867Z" fill="#161616"/>
<path d="M143.265 28.7032H151.598L141.094 18.1684H143.047C145.009 18.136 146.904 17.4604 148.432 16.2481C149.961 15.0359 151.036 13.3561 151.489 11.4741H110.053V28.7032H116.324V18.1684H132.797L143.265 28.7032Z" fill="#161616"/>
<path d="M250.641 0.975098H244.671V28.7509H250.641V0.975098Z" fill="#161616"/>
<path d="M234.059 6.39699L218.442 20.059L201.668 5.43388L195.71 0V0.701529V8.79884V28.7389H201.668V13.876L218.442 28.1563L234.059 14.851V28.7389H240.016V9.77384V1.67653V0.975006L234.059 6.39699Z" fill="#161616"/>
<path d="M290.919 0.975098H258.684C257.576 1.00006 256.524 1.45722 255.757 2.2463C254.991 3.03538 254.573 4.09196 254.596 5.18427V6.8727H261.012V6.76568H289.279V22.9484H261.012V11.4386H254.596V24.5179C254.573 25.6102 254.991 26.6668 255.757 27.4559C256.524 28.245 257.576 28.7021 258.684 28.7271H290.919C292.026 28.7021 293.079 28.245 293.845 27.4559C294.612 26.6668 295.029 25.6102 295.007 24.5179V5.18427C295.029 4.09196 294.612 3.03538 293.845 2.2463C293.079 1.45722 292.026 1.00006 290.919 0.975098Z" fill="#161616"/>
<path d="M340 0.701529H333.693V17.4788L300.144 0V0.701529V8.79884V28.7389H306.451V11.9735L339.988 28.8578V28.727L340 28.7389V0.701529Z" fill="#161616"/>
<path d="M0 0V7.56224H48.8281V41.4378H9.21331C8.80392 41.4378 8.4113 41.2774 8.12182 40.992C7.83235 40.7066 7.66972 40.3194 7.66972 39.9158V35.0645H38.0953C38.0953 33.0621 37.2886 31.1416 35.8525 29.7256C34.4164 28.3097 32.4686 27.5142 30.4377 27.5142H0V41.6161C0 43.5713 0.787729 45.4464 2.18989 46.8289C3.59206 48.2114 5.49381 48.9881 7.47677 48.9881H56.4978V0H0Z" fill="#161616"/>
<path d="M7.66972 21.4027H41.5443V13.8643H6.02965C4.43049 13.8643 2.89682 14.4906 1.76604 15.6056C0.635265 16.7205 0 18.2327 0 19.8094L0 21.4027H7.66972Z" fill="#EF6C00"/>
<path d="M73.9235 36.0486L73.8029 37.1187L72.7176 36.8809C72.597 36.8809 72.597 36.8809 72.597 36.762C72.597 36.762 72.597 36.6431 72.597 36.5242V35.9297H73.9235V36.0486ZM72.4764 46.2743V45.6797C72.4764 45.5608 72.4764 45.5608 72.4764 45.4419L72.597 45.323L73.6823 45.0852L73.8029 46.1554H72.4764V46.2743ZM73.4411 46.2743V36.0486H79.8326V37.1187H74.8882V40.6858H79.109V41.7559H74.8882V46.1554H73.4411V46.2743ZM74.4059 46.2743L74.5265 45.2041L75.6118 45.4419C75.7324 45.4419 75.7324 45.4419 75.7324 45.5609C75.7324 45.5609 75.7324 45.6798 75.7324 45.7987V46.3932H74.4059V46.2743ZM78.6266 36.8809L79.8326 37.2376V38.5456H79.2296C79.109 38.5456 79.109 38.5456 78.9884 38.5456L78.8678 38.4267L78.6266 36.8809Z" fill="black"/>
<path d="M83.5709 46.2745V45.68C83.5709 45.5611 83.5709 45.5611 83.5709 45.4422L83.6915 45.3233L84.7769 45.0855L84.8975 46.1556H83.5709V46.2745ZM83.9327 46.2745L88.0329 36.0488H89.48L93.5802 46.2745H92.4948C92.3742 46.2745 92.2537 46.2745 92.2537 46.1556C92.1331 46.0367 92.1331 46.0367 92.1331 45.9178L89.1182 38.308C89.1182 38.1891 88.9976 38.0702 88.9976 37.8324C88.9976 37.7135 88.877 37.4757 88.877 37.3568C88.877 37.5946 88.7564 37.7135 88.7564 37.8324C88.7564 37.9513 88.6359 38.1891 88.6359 38.308L85.621 45.9178C85.621 46.0367 85.5004 46.0367 85.5004 46.1556C85.3798 46.2745 85.2592 46.2745 85.1387 46.2745H83.9327ZM85.0181 46.2745V45.4422H85.7416V46.2745H85.0181ZM85.1387 46.2745L85.2593 45.2044L86.3446 45.4422C86.4652 45.4422 86.4652 45.4422 86.4652 45.5611C86.4652 45.5611 86.4652 45.68 86.4652 45.7989V46.3934H85.1387V46.2745ZM86.3446 43.3019L86.7064 42.3507H90.9271L91.2889 43.3019H86.3446ZM91.0477 46.2745V45.68C91.0477 45.5611 91.0477 45.5611 91.0477 45.4422C91.0477 45.3233 91.1683 45.3233 91.1683 45.3233L92.2537 45.0855L92.3742 46.1556H91.0477V46.2745ZM91.8919 46.2745V45.4422H92.6154V46.2745H91.8919ZM92.6154 46.2745L92.736 45.2044L93.8213 45.4422C93.9419 45.4422 93.9419 45.4422 93.9419 45.5611C93.9419 45.5611 93.9419 45.68 93.9419 45.7989V46.3934H92.6154V46.2745Z" fill="black"/>
<path d="M101.66 46.2745V37.2379H98.2833V36.0488H106.363V37.2379H102.986V46.2745H101.66ZM99.4892 36.8811L99.248 38.308C99.248 38.4269 99.248 38.4269 99.1274 38.4269C99.1274 38.4269 99.0069 38.4269 98.8863 38.4269H98.2833V37.1189L99.4892 36.8811ZM100.575 46.2745V45.68C100.575 45.5611 100.575 45.5611 100.575 45.4422L100.695 45.3233L101.78 45.0855L101.901 46.1556H100.575V46.2745ZM101.78 51.0306L101.539 50.7928C101.539 50.7928 101.539 50.7928 101.419 50.6739V50.555C101.419 50.555 101.419 50.4361 101.539 50.3172C101.66 50.1983 101.78 49.9605 102.022 49.7227C102.263 49.4849 102.263 49.2471 102.383 48.8904C102.142 48.8904 101.901 48.7715 101.78 48.6526C101.66 48.5337 101.539 48.2958 101.539 48.058C101.539 47.8202 101.66 47.7013 101.78 47.4635C101.901 47.3446 102.142 47.2257 102.383 47.2257C102.625 47.2257 102.866 47.3446 102.986 47.4635C103.107 47.7013 103.228 47.9391 103.228 48.1769C103.228 48.6526 103.107 49.1282 102.866 49.6038C102.625 50.0794 102.142 50.6739 101.78 51.0306ZM102.625 46.2745L102.745 45.2044L103.831 45.4422C103.951 45.4422 103.951 45.4422 103.951 45.5611C103.951 45.5611 103.951 45.68 103.951 45.7989V46.3934H102.625V46.2745ZM105.157 36.8811L106.363 37.2379V38.5458H105.76C105.639 38.5458 105.639 38.5458 105.519 38.5458L105.398 38.4269L105.157 36.8811Z" fill="black"/>
<path d="M110.584 46.2745V45.68C110.584 45.5611 110.584 45.5611 110.584 45.4422L110.704 45.3233L111.79 45.0855L111.91 46.1556H110.584V46.2745ZM110.946 46.2745L115.046 36.0488H116.493L120.593 46.2745H119.508C119.387 46.2745 119.266 46.2745 119.266 46.1556C119.146 46.0367 119.146 46.0367 119.146 45.9178L116.131 38.308C116.131 38.1891 116.01 38.0702 116.01 37.8324C116.01 37.7135 115.89 37.4757 115.89 37.3568C115.89 37.5946 115.769 37.7135 115.769 37.8324C115.769 37.9513 115.649 38.1891 115.649 38.308L112.634 45.9178C112.634 46.0367 112.513 46.0367 112.513 46.1556C112.393 46.2745 112.272 46.2745 112.151 46.2745H110.946ZM112.031 46.2745V45.4422H112.754V46.2745H112.031ZM112.151 46.2745L112.272 45.2044L113.357 45.4422C113.478 45.4422 113.478 45.4422 113.478 45.5611C113.478 45.5611 113.478 45.68 113.478 45.7989V46.3934H112.151V46.2745ZM113.357 43.3019L113.719 42.3507H117.94L118.302 43.3019H113.357ZM118.061 46.2745V45.68C118.061 45.5611 118.061 45.5611 118.061 45.4422C118.061 45.3233 118.181 45.3233 118.181 45.3233L119.266 45.0855L119.387 46.1556H118.061V46.2745ZM118.905 46.2745V45.4422H119.628V46.2745H118.905ZM119.628 46.2745L119.749 45.2044L120.834 45.4422C120.955 45.4422 120.955 45.4422 120.955 45.5611C120.955 45.5611 120.955 45.68 120.955 45.7989V46.3934H119.628V46.2745Z" fill="black"/>
<path d="M126.984 36.0486L126.864 37.1187L125.779 36.8809C125.658 36.8809 125.658 36.8809 125.658 36.762C125.658 36.762 125.658 36.6431 125.658 36.5242V35.9297H126.984V36.0486ZM125.537 46.2743V45.6797C125.537 45.5608 125.537 45.5608 125.537 45.4419L125.658 45.3231L126.743 45.0852L126.864 46.1554H125.537V46.2743ZM126.502 46.2743V36.0486H130.361C131.085 36.0486 131.808 36.1675 132.411 36.4053C133.014 36.6431 133.617 36.9998 133.979 37.4754C134.461 37.951 134.823 38.4267 135.064 39.1401C135.305 39.7346 135.426 40.448 135.426 41.2803C135.426 41.9938 135.305 42.7072 135.064 43.3017C134.823 43.8962 134.461 44.4907 133.979 44.8474C133.496 45.323 133.014 45.6798 132.411 45.9176C131.808 46.1554 131.085 46.2743 130.361 46.2743H126.502ZM127.949 45.2041H130.361C131.085 45.2041 131.808 45.0852 132.291 44.7285C132.773 44.3718 133.255 43.8962 133.496 43.3017C133.738 42.7072 133.979 41.9938 133.979 41.1614C133.979 40.3291 133.858 39.6157 133.496 39.0212C133.255 38.4267 132.773 37.951 132.291 37.5943C131.688 37.2376 131.085 37.1187 130.361 37.1187H127.949V45.2041Z" fill="black"/>
<path d="M141.576 36.0486L141.456 37.1187L140.37 36.8809C140.25 36.8809 140.25 36.8809 140.25 36.762C140.25 36.762 140.25 36.6431 140.25 36.5242V35.9297H141.576V36.0486ZM140.129 46.2743V45.6797C140.129 45.5608 140.129 45.5608 140.129 45.4419L140.25 45.3231L141.335 45.0852L141.456 46.1554H140.129V46.2743ZM141.214 46.2743V36.0486H147.606V37.1187H142.662V40.5669H146.521V41.637H142.662V45.0852H147.606V46.1554H141.214V46.2743ZM146.4 36.8809L147.606 37.2376V38.5456H147.003C146.882 38.5456 146.882 38.5456 146.762 38.5456L146.641 38.4267L146.4 36.8809ZM146.4 45.5609L146.641 44.134C146.641 44.0151 146.641 44.0151 146.762 44.0151C146.762 44.0151 146.882 44.0151 147.003 44.0151H147.606V45.3231L146.4 45.5609Z" fill="black"/>
<path d="M161.353 36.0486L161.233 37.1187L160.148 36.8809C160.027 36.8809 160.027 36.8809 160.027 36.762C160.027 36.762 160.027 36.6431 160.027 36.5242V35.9297H161.353V36.0486ZM159.906 46.2743V45.6797C159.906 45.5608 159.906 45.5608 159.906 45.4419L160.027 45.3231L161.112 45.0852L161.233 46.1554H159.906V46.2743ZM160.871 46.2743V36.0486H167.262V37.1187H162.318V40.5669H166.177V41.637H162.318V45.0852H167.262V46.1554H160.871V46.2743ZM166.057 36.8809L167.262 37.2376V38.5456H166.66C166.539 38.5456 166.539 38.5456 166.418 38.5456L166.298 38.4267L166.057 36.8809ZM166.057 45.5609L166.298 44.134C166.298 44.0151 166.298 44.0151 166.418 44.0151C166.418 44.0151 166.539 44.0151 166.66 44.0151H167.262V45.3231L166.057 45.5609Z" fill="black"/>
<path d="M171.845 46.2743V45.6797C171.845 45.5608 171.845 45.5608 171.845 45.4419L171.966 45.323L173.051 45.0852L173.172 46.1554H171.845V46.2743ZM173.533 36.0486L173.413 37.1187L172.327 36.8809C172.207 36.8809 172.207 36.8809 172.207 36.762C172.207 36.762 172.207 36.6431 172.207 36.5242V35.9297H173.533V36.0486ZM172.327 46.2743L175.945 41.0425L172.569 36.0486H174.016C174.136 36.0486 174.136 36.0486 174.257 36.0486L174.378 36.1675L177.031 40.2102C177.031 40.2102 177.031 40.0913 177.151 40.0913C177.272 40.0913 177.151 39.9724 177.272 39.9724L179.804 36.2864C179.804 36.1675 179.925 36.1675 179.925 36.1675C179.925 36.1675 180.045 36.1675 180.166 36.1675H181.492L178.116 41.0425L181.613 46.3932H180.287C180.166 46.3932 180.045 46.3932 180.045 46.2743C180.045 46.1554 179.925 46.1554 179.925 46.0365L177.151 41.7559C177.151 41.7559 177.151 41.8748 177.031 41.8748C177.031 41.8748 177.031 41.9938 176.91 41.9938L174.257 45.9176C174.257 46.0365 174.136 46.0365 174.136 46.1554C174.136 46.2743 174.016 46.2743 173.895 46.2743H172.327ZM173.051 46.2743V45.6797H174.257V46.2743H173.051ZM173.413 36.4053V36.0486H174.498V36.4053H173.413ZM174.136 46.2743L174.257 45.2041L175.342 45.4419C175.463 45.4419 175.463 45.4419 175.463 45.5609C175.463 45.5609 175.463 45.6798 175.463 45.7987V46.3932H174.136V46.2743ZM175.704 36.0486V36.6431C175.704 36.762 175.704 36.762 175.704 36.8809C175.704 36.9998 175.583 36.9998 175.583 36.9998L174.498 37.2376L174.378 36.1675H175.704V36.0486ZM179.563 36.0486L179.442 37.1187L178.357 36.8809C178.236 36.8809 178.236 36.8809 178.236 36.762C178.236 36.6431 178.236 36.6431 178.236 36.5242V35.9297H179.563V36.0486ZM178.116 46.2743V45.6797C178.116 45.5608 178.116 45.5608 178.116 45.4419L178.236 45.323L179.322 45.0852L179.442 46.1554H178.116V46.2743ZM179.322 46.2743V45.6797H180.528V46.2743H179.322ZM179.322 36.4053V36.0486H180.407V36.4053H179.322ZM181.734 36.0486V36.6431C181.734 36.762 181.734 36.762 181.734 36.8809L181.613 36.9998L180.528 37.2376L180.407 36.1675H181.734V36.0486ZM180.287 46.2743L180.407 45.2041L181.492 45.4419C181.613 45.4419 181.613 45.4419 181.613 45.5609C181.613 45.5609 181.613 45.6798 181.613 45.7987V46.3932H180.287V46.2743Z" fill="black"/>
<path d="M190.899 46.3934C190.175 46.3934 189.452 46.2745 188.849 46.0367C188.246 45.7989 187.643 45.4422 187.281 44.8477C186.799 44.372 186.557 43.7775 186.316 43.183C186.075 42.5885 185.954 41.8751 185.954 41.2806C185.954 40.4482 186.075 39.7348 186.316 39.1403C186.557 38.5458 186.919 37.9513 187.402 37.4757C187.884 37 188.366 36.6433 189.09 36.4055C189.693 36.1677 190.416 36.0488 191.14 36.0488C191.502 36.0488 191.863 36.0488 192.225 36.1677C192.587 36.2866 192.949 36.2866 193.311 36.4055C193.672 36.5244 194.034 36.6433 194.396 36.7622V37.8324L193.431 37.5946C193.19 37.4757 192.828 37.3568 192.466 37.3568C192.105 37.2379 191.743 37.2379 191.261 37.2379C190.537 37.2379 189.813 37.3568 189.21 37.7135C188.607 38.0702 188.246 38.5458 187.884 39.1403C187.522 39.7348 187.402 40.4482 187.402 41.2806C187.402 41.994 187.522 42.7074 187.763 43.3019C188.005 43.8964 188.487 44.3721 188.969 44.7288C189.452 45.0855 190.175 45.2044 191.019 45.2044C191.502 45.2044 191.863 45.0855 192.346 44.9666C192.708 44.8477 193.19 44.6098 193.552 44.2531L193.672 44.1342H193.793C193.914 44.1342 193.914 44.1342 194.034 44.2531L194.637 44.8477C194.275 45.3233 193.793 45.68 193.19 45.9178C192.466 46.2745 191.743 46.3934 190.899 46.3934ZM193.19 37.3568L194.396 37.7135V39.0214H193.793C193.672 39.0214 193.672 39.0214 193.552 39.0214L193.431 38.9025L193.19 37.3568Z" fill="black"/>
<path d="M200.908 36.0486L200.787 37.1187L199.702 36.8809C199.581 36.8809 199.581 36.8809 199.581 36.762C199.581 36.762 199.581 36.6431 199.581 36.5242V35.9297H200.908V36.0486ZM199.34 46.2743V45.6797C199.34 45.5608 199.34 45.5608 199.34 45.4419L199.461 45.3231L200.546 45.0852L200.667 46.1554H199.34V46.2743ZM200.426 46.2743V36.0486H201.873V45.0852H206.696V46.2743H200.426ZM202.837 36.0486V36.6431C202.837 36.762 202.837 36.762 202.837 36.8809L202.717 36.9998L201.632 37.2376L201.511 36.1675H202.837V36.0486ZM205.49 45.4419L205.732 44.0151C205.732 43.8962 205.732 43.8962 205.852 43.8962C205.852 43.8962 205.973 43.8962 206.093 43.8962H206.696V45.2041L205.49 45.4419Z" fill="black"/>
<path d="M212.364 36.0486L212.244 37.1187L211.158 36.8809C211.038 36.8809 211.038 36.8809 211.038 36.762C211.038 36.762 211.038 36.6431 211.038 36.5242V35.9297H212.364V36.0486ZM215.982 46.3932C215.138 46.3932 214.414 46.1554 213.811 45.7987C213.208 45.4419 212.726 44.9663 212.364 44.3718C212.003 43.7773 211.882 43.0639 211.882 42.2316V36.0486H213.329V42.2316C213.329 42.8261 213.45 43.3017 213.691 43.7773C213.932 44.2529 214.173 44.6096 214.656 44.8474C215.017 45.0852 215.5 45.2041 216.103 45.2041C216.706 45.2041 217.188 45.0852 217.55 44.8474C217.912 44.6096 218.273 44.2529 218.515 43.7773C218.756 43.3017 218.876 42.8261 218.876 42.2316V36.0486H220.323V42.2316C220.323 43.0639 220.203 43.7773 219.841 44.3718C219.479 44.9663 218.997 45.4419 218.394 45.7987C217.55 46.2743 216.826 46.3932 215.982 46.3932ZM214.294 36.0486V36.6431C214.294 36.762 214.294 36.762 214.294 36.8809L214.173 36.9998L213.088 37.2376L212.967 36.1675H214.294V36.0486ZM219.118 36.0486L218.997 37.1187L217.912 36.8809C217.791 36.8809 217.791 36.8809 217.791 36.762C217.791 36.762 217.791 36.6431 217.791 36.5242V35.9297H219.118V36.0486ZM221.168 36.0486V36.6431C221.168 36.762 221.168 36.762 221.168 36.8809L221.047 36.9998L219.962 37.2376L219.841 36.1675H221.168V36.0486Z" fill="black"/>
<path d="M228.886 46.3934C228.524 46.3934 228.162 46.3934 227.8 46.2745C227.438 46.1556 227.077 46.1556 226.715 46.0367C226.353 45.9178 226.112 45.9178 225.991 45.7989V44.6099L227.077 44.8477C227.438 44.9666 227.8 45.0855 228.041 45.2044C228.283 45.2044 228.644 45.3233 229.006 45.3233C229.489 45.3233 229.85 45.2044 230.091 45.0855C230.453 44.9666 230.694 44.7287 230.815 44.4909C230.936 44.2531 231.056 43.8964 231.056 43.5397C231.056 43.183 230.936 42.9452 230.815 42.7074C230.694 42.4696 230.453 42.3507 230.212 42.2318C229.971 42.1129 229.73 41.994 229.368 41.8751C229.127 41.7562 228.765 41.6373 228.524 41.6373C228.162 41.5184 227.8 41.2806 227.318 41.1617C226.835 41.0428 226.594 40.686 226.353 40.3293C226.112 39.9726 225.991 39.497 225.991 39.0214C225.991 38.5458 226.112 37.9513 226.353 37.4757C226.594 37 226.956 36.6433 227.438 36.4055C227.921 36.1677 228.524 36.0488 229.127 36.0488C229.489 36.0488 229.971 36.0488 230.453 36.1677C230.936 36.2866 231.418 36.4055 231.9 36.6433V37.7135L230.815 37.4757C230.453 37.3568 230.212 37.3568 229.85 37.2379C229.489 37.2379 229.247 37.1189 229.006 37.1189C228.403 37.1189 227.921 37.2379 227.559 37.5946C227.197 37.8324 227.077 38.308 227.077 38.6647C227.077 39.0214 227.197 39.3781 227.438 39.6159C227.68 39.8537 228.041 39.9726 228.403 40.0915C228.765 40.2104 229.127 40.3293 229.609 40.4482C230.091 40.5671 230.453 40.805 230.815 41.0428C231.177 41.2806 231.539 41.5184 231.659 41.8751C231.9 42.2318 232.021 42.7074 232.021 43.183C232.021 43.7775 231.9 44.372 231.539 44.8477C231.297 45.3233 230.815 45.68 230.333 45.9178C230.333 46.2745 229.609 46.3934 228.886 46.3934ZM227.197 44.9666L225.991 44.6099V43.3019H226.594C226.715 43.3019 226.715 43.3019 226.835 43.3019L226.956 43.4208L227.197 44.9666ZM231.056 37.2379L232.262 37.5946V38.9025H231.659C231.539 38.9025 231.539 38.9025 231.418 38.9025L231.297 38.7836L231.056 37.2379Z" fill="black"/>
<path d="M238.774 36.0486L238.654 37.1187L237.568 36.8809C237.448 36.8809 237.448 36.8809 237.448 36.762C237.448 36.762 237.448 36.6431 237.448 36.5242V35.9297H238.774V36.0486ZM237.327 46.2743V45.6797C237.327 45.5608 237.327 45.5608 237.327 45.4419L237.448 45.323L238.533 45.0852L238.654 46.1554H237.327V46.2743ZM238.292 46.2743V36.0486H239.739V46.2743H238.292ZM240.824 36.0486V36.6431C240.824 36.762 240.824 36.762 240.824 36.8809L240.704 36.9998L239.618 37.2376L239.498 36.1675H240.824V36.0486ZM239.377 46.2743L239.498 45.2041L240.583 45.4419C240.704 45.4419 240.704 45.4419 240.704 45.5609C240.704 45.5609 240.704 45.6798 240.704 45.7987V46.3932H239.377V46.2743Z" fill="black"/>
<path d="M246.733 36.0486L246.613 37.1187L245.527 36.8809C245.407 36.8809 245.407 36.8809 245.407 36.762C245.407 36.762 245.407 36.6431 245.407 36.5242V35.9297H246.733V36.0486ZM249.869 46.2743L245.648 36.0486H246.733C246.854 36.0486 246.975 36.0486 247.095 36.1675C247.216 36.2864 247.216 36.2864 247.216 36.4053L250.11 43.5395C250.231 43.6584 250.231 43.8962 250.351 44.0151C250.472 44.134 250.472 44.3718 250.472 44.6096C250.472 44.3718 250.592 44.2529 250.592 44.0151C250.592 43.7773 250.713 43.6584 250.713 43.5395L253.607 36.4053C253.607 36.2864 253.728 36.2864 253.728 36.1675C253.728 36.0486 253.969 36.0486 254.089 36.0486H255.175L250.954 46.2743H249.869ZM246.613 36.4053V36.0486H247.698V36.4053H246.613ZM248.663 36.0486V36.6431C248.663 36.762 248.663 36.762 248.663 36.8809L248.542 36.9998L247.457 37.2376L247.336 36.1675H248.663V36.0486ZM253.969 36.0486L253.848 37.1187L252.763 36.8809C252.642 36.8809 252.642 36.8809 252.642 36.762C252.642 36.762 252.642 36.6431 252.642 36.5242V35.9297H253.969V36.0486ZM253.487 36.4053V36.0486H254.572V36.4053H253.487ZM255.898 36.0486V36.6431C255.898 36.762 255.898 36.762 255.898 36.8809L255.778 36.9998L254.692 37.2376L254.572 36.1675H255.898V36.0486Z" fill="black"/>
<path d="M261.807 36.0486L261.687 37.1187L260.602 36.8809C260.481 36.8809 260.481 36.8809 260.481 36.762C260.481 36.762 260.481 36.6431 260.481 36.5242V35.9297H261.807V36.0486ZM260.36 46.2743V45.6797C260.36 45.5608 260.36 45.5608 260.36 45.4419L260.481 45.3231L261.566 45.0852L261.687 46.1554H260.36V46.2743ZM261.325 46.2743V36.0486H267.717V37.1187H262.772V40.5669H266.631V41.637H262.772V45.0852H267.717V46.1554H261.325V46.2743ZM266.511 36.8809L267.717 37.2376V38.5456H266.993C266.872 38.5456 266.872 38.5456 266.752 38.5456L266.631 38.4267L266.511 36.8809ZM266.511 45.5609L266.752 44.134C266.752 44.0151 266.752 44.0151 266.872 44.0151C266.872 44.0151 266.993 44.0151 267.114 44.0151H267.717V45.3231L266.511 45.5609Z" fill="black"/>
</g>
<defs>
<clipPath id="clip0_141_254">
<rect width="340" height="49" fill="white"/>
</clipPath>
</defs>
</svg>
