<svg width="283" height="42" viewBox="0 0 283 42" fill="none" xmlns="http://www.w3.org/2000/svg">
<g clip-path="url(#clip0_141_220)">
<path d="M88.4351 0.342537H64.7851C63.3228 0.374037 61.9327 0.984642 60.9202 2.04025C59.9078 3.09586 59.3556 4.51016 59.3851 5.97254H88.4351V0.342537Z" fill="#EF6C00"/>
<path d="M68.9051 9.81254V15.1625H88.4351C88.4448 14.4535 88.3112 13.7499 88.0425 13.0937C87.7738 12.4375 87.3754 11.8423 86.8712 11.3437C86.367 10.8451 85.7674 10.4534 85.1082 10.192C84.4491 9.93066 83.744 9.80498 83.0351 9.82254L68.9051 9.81254Z" fill="white"/>
<path d="M64.7851 18.6725V9.81254H59.3851V19.0725C59.3556 20.4288 59.8656 21.7414 60.8031 22.722C61.7405 23.7026 63.0289 24.2711 64.3851 24.3025H89.0051V18.6725H64.7851Z" fill="white"/>
<path d="M158.005 0.342537H128.945V5.97254H158.005V0.342537Z" fill="white"/>
<path d="M138.505 9.81254V15.1625H158.005C158.015 14.4535 157.881 13.7499 157.612 13.0937C157.344 12.4375 156.945 11.8423 156.441 11.3437C155.937 10.8451 155.337 10.4534 154.678 10.192C154.019 9.93066 153.314 9.80498 152.605 9.82254L138.505 9.81254Z" fill="white"/>
<path d="M134.355 18.6725V9.81254H128.945V19.0725C128.918 20.4281 129.429 21.7392 130.366 22.7192C131.303 23.6992 132.59 24.2684 133.945 24.3025H158.555V18.6725H134.355Z" fill="white"/>
<path d="M119.155 0.342537H91.7651V5.97254H126.165C125.789 4.38808 124.896 2.97415 123.626 1.95446C122.357 0.934774 120.783 0.367551 119.155 0.342537Z" fill="white"/>
<path d="M119.305 24.3025H126.215L117.505 15.4425H119.125C120.752 15.4153 122.323 14.8471 123.59 13.8276C124.858 12.8081 125.75 11.3954 126.125 9.81254H91.7651V24.3025H96.9651V15.4425H110.625L119.305 24.3025Z" fill="white"/>
<path d="M208.345 0.982536H203.395V24.3425H208.345V0.982536Z" fill="white"/>
<path d="M194.595 5.54254L181.645 17.0325L167.735 4.73254L162.795 0.162537V0.752537V7.56254V24.3325H167.735V11.8325L181.645 23.8425L194.595 12.6525V24.3325H199.535V8.38254V1.57254V0.982537L194.595 5.54254Z" fill="white"/>
<path d="M241.745 0.982536H215.015C214.097 1.00353 213.224 1.38801 212.588 2.05164C211.953 2.71528 211.606 3.60388 211.625 4.52254V5.94254H216.945V5.85254H240.385V19.4625H216.945V9.78254H211.625V20.7825C211.606 21.7012 211.953 22.5898 212.588 23.2534C213.224 23.9171 214.097 24.3015 215.015 24.3225H241.745C242.664 24.3015 243.537 23.9171 244.172 23.2534C244.808 22.5898 245.154 21.7012 245.135 20.7825V4.52254C245.154 3.60388 244.808 2.71528 244.172 2.05164C243.537 1.38801 242.664 1.00353 241.745 0.982536Z" fill="white"/>
<path d="M282.445 0.752537H277.215V14.8625L249.395 0.162537V0.752537V7.56254V24.3325H254.625V10.2325L282.435 24.4325V24.3225L282.445 24.3325V0.752537Z" fill="white"/>
<path d="M0.505127 0.162537V6.52254H40.9951V35.0125H8.14513C7.80565 35.0125 7.48008 34.8777 7.24003 34.6376C6.99998 34.3976 6.86513 34.072 6.86513 33.7325V29.6525H32.0951C32.0951 27.9684 31.4261 26.3533 30.2353 25.1624C29.0444 23.9716 27.4293 23.3025 25.7451 23.3025H0.505127V35.1625C0.505127 36.8069 1.15834 38.3839 2.32106 39.5466C3.48379 40.7093 5.06078 41.3625 6.70513 41.3625H47.3551V0.162537H0.505127Z" fill="white"/>
<path d="M6.86513 18.1625H34.9551V11.8225H5.50513C4.17904 11.8225 2.90727 12.3493 1.96959 13.287C1.03191 14.2247 0.505127 15.4965 0.505127 16.8225L0.505127 18.1625H6.86513Z" fill="#EF6C00"/>
<path d="M61.8051 30.4799L61.7051 31.3799L60.8051 31.1799C60.7051 31.1799 60.7051 31.1799 60.7051 31.0799C60.7051 31.0799 60.7051 30.9799 60.7051 30.8799V30.3799H61.8051V30.4799ZM60.6051 39.0799V38.5799C60.6051 38.4799 60.6051 38.4799 60.6051 38.3799L60.7051 38.28L61.6051 38.0799L61.7051 38.9799H60.6051V39.0799ZM61.4051 39.0799V30.4799H66.7051V31.3799H62.6051V34.3799H66.1051V35.2799H62.6051V38.9799H61.4051V39.0799ZM62.2051 39.0799L62.3051 38.1799L63.2051 38.3799C63.3051 38.3799 63.3051 38.3799 63.3051 38.4799C63.3051 38.4799 63.3051 38.5799 63.3051 38.6799V39.1799H62.2051V39.0799ZM65.7051 31.1799L66.7051 31.4799V32.5799H66.2051C66.1051 32.5799 66.1051 32.5799 66.0051 32.5799L65.9051 32.4799L65.7051 31.1799Z" fill="white"/>
<path d="M69.8051 39.0799V38.5799C69.8051 38.4799 69.8051 38.4799 69.8051 38.3799L69.9051 38.28L70.8051 38.0799L70.9051 38.9799H69.8051V39.0799ZM70.1051 39.0799L73.5051 30.4799H74.7051L78.1051 39.0799H77.2051C77.1051 39.0799 77.0051 39.08 77.0051 38.9799C76.9051 38.8799 76.9051 38.88 76.9051 38.78L74.4051 32.3799C74.4051 32.2799 74.3051 32.1799 74.3051 31.9799C74.3051 31.8799 74.2051 31.6799 74.2051 31.5799C74.2051 31.7799 74.1051 31.8799 74.1051 31.9799C74.1051 32.0799 74.0051 32.2799 74.0051 32.3799L71.5051 38.78C71.5051 38.88 71.4051 38.8799 71.4051 38.9799C71.3051 39.08 71.2051 39.0799 71.1051 39.0799H70.1051ZM71.0051 39.0799V38.3799H71.6051V39.0799H71.0051ZM71.1051 39.0799L71.2051 38.1799L72.1051 38.3799C72.2051 38.3799 72.2051 38.38 72.2051 38.4799C72.2051 38.4799 72.2051 38.5799 72.2051 38.6799V39.1799H71.1051V39.0799ZM72.1051 36.5799L72.4051 35.7799H75.9051L76.2051 36.5799H72.1051ZM76.0051 39.0799V38.5799C76.0051 38.4799 76.0051 38.4799 76.0051 38.3799C76.0051 38.2799 76.1051 38.28 76.1051 38.28L77.0051 38.0799L77.1051 38.9799H76.0051V39.0799ZM76.7051 39.0799V38.3799H77.3051V39.0799H76.7051ZM77.3051 39.0799L77.4051 38.1799L78.3051 38.3799C78.4051 38.3799 78.4051 38.38 78.4051 38.4799C78.4051 38.4799 78.4051 38.5799 78.4051 38.6799V39.1799H77.3051V39.0799Z" fill="white"/>
<path d="M84.8051 39.0799V31.4799H82.0051V30.4799H88.7051V31.4799H85.9051V39.0799H84.8051ZM83.0051 31.1799L82.8051 32.3799C82.8051 32.4799 82.8051 32.4799 82.7051 32.4799C82.7051 32.4799 82.6051 32.4799 82.5051 32.4799H82.0051V31.3799L83.0051 31.1799ZM83.9051 39.0799V38.5799C83.9051 38.4799 83.9051 38.4799 83.9051 38.3799L84.0051 38.28L84.9051 38.0799L85.0051 38.9799H83.9051V39.0799ZM84.9051 43.0799L84.7051 42.8799C84.7051 42.8799 84.7051 42.88 84.6051 42.78V42.6799C84.6051 42.6799 84.6051 42.58 84.7051 42.4799C84.8051 42.3799 84.9051 42.1799 85.1051 41.9799C85.3051 41.78 85.3051 41.58 85.4051 41.28C85.2051 41.28 85.0051 41.1799 84.9051 41.0799C84.8051 40.9799 84.7051 40.7799 84.7051 40.5799C84.7051 40.3799 84.8051 40.2799 84.9051 40.0799C85.0051 39.9799 85.2051 39.8799 85.4051 39.8799C85.6051 39.8799 85.8051 39.9799 85.9051 40.0799C86.0051 40.2799 86.1051 40.4799 86.1051 40.6799C86.1051 41.0799 86.0051 41.4799 85.8051 41.8799C85.6051 42.2799 85.2051 42.7799 84.9051 43.0799ZM85.6051 39.0799L85.7051 38.1799L86.6051 38.3799C86.7051 38.3799 86.7051 38.38 86.7051 38.4799C86.7051 38.4799 86.7051 38.5799 86.7051 38.6799V39.1799H85.6051V39.0799ZM87.7051 31.1799L88.7051 31.4799V32.5799H88.2051C88.1051 32.5799 88.1051 32.5799 88.0051 32.5799L87.9051 32.4799L87.7051 31.1799Z" fill="white"/>
<path d="M92.2051 39.0799V38.5799C92.2051 38.4799 92.2051 38.4799 92.2051 38.3799L92.3051 38.28L93.2051 38.0799L93.3051 38.9799H92.2051V39.0799ZM92.5051 39.0799L95.9051 30.4799H97.1051L100.505 39.0799H99.6051C99.5051 39.0799 99.4051 39.08 99.4051 38.9799C99.3051 38.8799 99.3051 38.88 99.3051 38.78L96.8051 32.3799C96.8051 32.2799 96.7051 32.1799 96.7051 31.9799C96.7051 31.8799 96.6051 31.6799 96.6051 31.5799C96.6051 31.7799 96.5051 31.8799 96.5051 31.9799C96.5051 32.0799 96.4051 32.2799 96.4051 32.3799L93.9051 38.78C93.9051 38.88 93.8051 38.8799 93.8051 38.9799C93.7051 39.08 93.6051 39.0799 93.5051 39.0799H92.5051ZM93.4051 39.0799V38.3799H94.0051V39.0799H93.4051ZM93.5051 39.0799L93.6051 38.1799L94.5051 38.3799C94.6051 38.3799 94.6051 38.38 94.6051 38.4799C94.6051 38.4799 94.6051 38.5799 94.6051 38.6799V39.1799H93.5051V39.0799ZM94.5051 36.5799L94.8051 35.7799H98.3051L98.6051 36.5799H94.5051ZM98.4051 39.0799V38.5799C98.4051 38.4799 98.4051 38.4799 98.4051 38.3799C98.4051 38.2799 98.5051 38.28 98.5051 38.28L99.4051 38.0799L99.5051 38.9799H98.4051V39.0799ZM99.1051 39.0799V38.3799H99.7051V39.0799H99.1051ZM99.7051 39.0799L99.8051 38.1799L100.705 38.3799C100.805 38.3799 100.805 38.38 100.805 38.4799C100.805 38.4799 100.805 38.5799 100.805 38.6799V39.1799H99.7051V39.0799Z" fill="white"/>
<path d="M105.805 30.4799L105.705 31.3799L104.805 31.1799C104.705 31.1799 104.705 31.1799 104.705 31.0799C104.705 31.0799 104.705 30.9799 104.705 30.8799V30.3799H105.805V30.4799ZM104.605 39.0799V38.5799C104.605 38.4799 104.605 38.4799 104.605 38.3799L104.705 38.28L105.605 38.0799L105.705 38.9799H104.605V39.0799ZM105.405 39.0799V30.4799H108.605C109.205 30.4799 109.805 30.5799 110.305 30.7799C110.805 30.9799 111.305 31.2799 111.605 31.6799C112.005 32.0799 112.305 32.4799 112.505 33.0799C112.705 33.5799 112.805 34.1799 112.805 34.8799C112.805 35.4799 112.705 36.0799 112.505 36.5799C112.305 37.0799 112.005 37.5799 111.605 37.8799C111.205 38.2799 110.805 38.58 110.305 38.78C109.805 38.98 109.205 39.0799 108.605 39.0799H105.405ZM106.605 38.1799H108.605C109.205 38.1799 109.805 38.08 110.205 37.78C110.605 37.48 111.005 37.0799 111.205 36.5799C111.405 36.0799 111.605 35.4799 111.605 34.7799C111.605 34.0799 111.505 33.4799 111.205 32.9799C111.005 32.4799 110.605 32.0799 110.205 31.7799C109.705 31.4799 109.205 31.3799 108.605 31.3799H106.605V38.1799Z" fill="white"/>
<path d="M117.905 30.4799L117.805 31.3799L116.905 31.1799C116.805 31.1799 116.805 31.1799 116.805 31.0799C116.805 31.0799 116.805 30.9799 116.805 30.8799V30.3799H117.905V30.4799ZM116.705 39.0799V38.5799C116.705 38.4799 116.705 38.4799 116.705 38.3799L116.805 38.28L117.705 38.0799L117.805 38.9799H116.705V39.0799ZM117.605 39.0799V30.4799H122.905V31.3799H118.805V34.2799H122.005V35.1799H118.805V38.0799H122.905V38.9799H117.605V39.0799ZM121.905 31.1799L122.905 31.4799V32.5799H122.405C122.305 32.5799 122.305 32.5799 122.205 32.5799L122.105 32.4799L121.905 31.1799ZM121.905 38.4799L122.105 37.28C122.105 37.18 122.105 37.1799 122.205 37.1799C122.205 37.1799 122.305 37.1799 122.405 37.1799H122.905V38.28L121.905 38.4799Z" fill="white"/>
<path d="M134.305 30.4799L134.205 31.3799L133.305 31.1799C133.205 31.1799 133.205 31.1799 133.205 31.0799C133.205 31.0799 133.205 30.9799 133.205 30.8799V30.3799H134.305V30.4799ZM133.105 39.0799V38.5799C133.105 38.4799 133.105 38.4799 133.105 38.3799L133.205 38.28L134.105 38.0799L134.205 38.9799H133.105V39.0799ZM133.905 39.0799V30.4799H139.205V31.3799H135.105V34.2799H138.305V35.1799H135.105V38.0799H139.205V38.9799H133.905V39.0799ZM138.205 31.1799L139.205 31.4799V32.5799H138.705C138.605 32.5799 138.605 32.5799 138.505 32.5799L138.405 32.4799L138.205 31.1799ZM138.205 38.4799L138.405 37.28C138.405 37.18 138.405 37.1799 138.505 37.1799C138.505 37.1799 138.605 37.1799 138.705 37.1799H139.205V38.28L138.205 38.4799Z" fill="white"/>
<path d="M143.005 39.0799V38.5799C143.005 38.4799 143.005 38.4799 143.005 38.3799L143.105 38.28L144.005 38.0799L144.105 38.9799H143.005V39.0799ZM144.405 30.4799L144.305 31.3799L143.405 31.1799C143.305 31.1799 143.305 31.1799 143.305 31.0799C143.305 31.0799 143.305 30.9799 143.305 30.8799V30.3799H144.405V30.4799ZM143.405 39.0799L146.405 34.6799L143.605 30.4799H144.805C144.905 30.4799 144.905 30.4799 145.005 30.4799L145.105 30.5799L147.305 33.9799C147.305 33.9799 147.305 33.8799 147.405 33.8799C147.505 33.8799 147.405 33.7799 147.505 33.7799L149.605 30.6799C149.605 30.5799 149.705 30.5799 149.705 30.5799C149.705 30.5799 149.805 30.5799 149.905 30.5799H151.005L148.205 34.6799L151.105 39.1799H150.005C149.905 39.1799 149.805 39.1799 149.805 39.0799C149.805 38.9799 149.705 38.9799 149.705 38.8799L147.405 35.2799C147.405 35.2799 147.405 35.3799 147.305 35.3799C147.305 35.3799 147.305 35.4799 147.205 35.4799L145.005 38.78C145.005 38.88 144.905 38.8799 144.905 38.9799C144.905 39.08 144.805 39.0799 144.705 39.0799H143.405ZM144.005 39.0799V38.5799H145.005V39.0799H144.005ZM144.305 30.7799V30.4799H145.205V30.7799H144.305ZM144.905 39.0799L145.005 38.1799L145.905 38.3799C146.005 38.3799 146.005 38.3799 146.005 38.4799C146.005 38.4799 146.005 38.5799 146.005 38.6799V39.1799H144.905V39.0799ZM146.205 30.4799V30.9799C146.205 31.0799 146.205 31.0799 146.205 31.1799C146.205 31.2799 146.105 31.2799 146.105 31.2799L145.205 31.4799L145.105 30.5799H146.205V30.4799ZM149.405 30.4799L149.305 31.3799L148.405 31.1799C148.305 31.1799 148.305 31.1799 148.305 31.0799C148.305 30.9799 148.305 30.9799 148.305 30.8799V30.3799H149.405V30.4799ZM148.205 39.0799V38.5799C148.205 38.4799 148.205 38.4799 148.205 38.3799L148.305 38.28L149.205 38.0799L149.305 38.9799H148.205V39.0799ZM149.205 39.0799V38.5799H150.205V39.0799H149.205ZM149.205 30.7799V30.4799H150.105V30.7799H149.205ZM151.205 30.4799V30.9799C151.205 31.0799 151.205 31.0799 151.205 31.1799L151.105 31.2799L150.205 31.4799L150.105 30.5799H151.205V30.4799ZM150.005 39.0799L150.105 38.1799L151.005 38.3799C151.105 38.3799 151.105 38.3799 151.105 38.4799C151.105 38.4799 151.105 38.5799 151.105 38.6799V39.1799H150.005V39.0799Z" fill="white"/>
<path d="M158.805 39.1799C158.205 39.1799 157.605 39.0799 157.105 38.8799C156.605 38.6799 156.105 38.3799 155.805 37.8799C155.405 37.4799 155.205 36.9799 155.005 36.4799C154.805 35.9799 154.705 35.3799 154.705 34.8799C154.705 34.1799 154.805 33.5799 155.005 33.0799C155.205 32.5799 155.505 32.0799 155.905 31.6799C156.305 31.2799 156.705 30.9799 157.305 30.7799C157.805 30.5799 158.405 30.4799 159.005 30.4799C159.305 30.4799 159.605 30.4799 159.905 30.5799C160.205 30.6799 160.505 30.6799 160.805 30.7799C161.105 30.8799 161.405 30.9799 161.705 31.0799V31.9799L160.905 31.7799C160.705 31.6799 160.405 31.5799 160.105 31.5799C159.805 31.4799 159.505 31.4799 159.105 31.4799C158.505 31.4799 157.905 31.5799 157.405 31.8799C156.905 32.1799 156.605 32.5799 156.305 33.0799C156.005 33.5799 155.905 34.1799 155.905 34.8799C155.905 35.4799 156.005 36.0799 156.205 36.5799C156.405 37.0799 156.805 37.48 157.205 37.78C157.605 38.08 158.205 38.1799 158.905 38.1799C159.305 38.1799 159.605 38.0799 160.005 37.9799C160.305 37.88 160.705 37.6799 161.005 37.3799L161.105 37.28H161.205C161.305 37.28 161.305 37.2799 161.405 37.3799L161.905 37.8799C161.605 38.2799 161.205 38.58 160.705 38.78C160.105 39.08 159.505 39.1799 158.805 39.1799ZM160.705 31.5799L161.705 31.8799V32.9799H161.205C161.105 32.9799 161.105 32.9799 161.005 32.9799L160.905 32.8799L160.705 31.5799Z" fill="white"/>
<path d="M167.105 30.4799L167.005 31.3799L166.105 31.1799C166.005 31.1799 166.005 31.1799 166.005 31.0799C166.005 31.0799 166.005 30.9799 166.005 30.8799V30.3799H167.105V30.4799ZM165.805 39.0799V38.5799C165.805 38.4799 165.805 38.4799 165.805 38.3799L165.905 38.28L166.805 38.0799L166.905 38.9799H165.805V39.0799ZM166.705 39.0799V30.4799H167.905V38.0799H171.905V39.0799H166.705ZM168.705 30.4799V30.9799C168.705 31.0799 168.705 31.0799 168.705 31.1799L168.605 31.2799L167.705 31.4799L167.605 30.5799H168.705V30.4799ZM170.905 38.3799L171.105 37.1799C171.105 37.0799 171.105 37.0799 171.205 37.0799C171.205 37.0799 171.305 37.0799 171.405 37.0799H171.905V38.1799L170.905 38.3799Z" fill="white"/>
<path d="M176.605 30.4799L176.505 31.3799L175.605 31.1799C175.505 31.1799 175.505 31.1799 175.505 31.0799C175.505 31.0799 175.505 30.9799 175.505 30.8799V30.3799H176.605V30.4799ZM179.605 39.1799C178.905 39.1799 178.305 38.9799 177.805 38.6799C177.305 38.3799 176.905 37.9799 176.605 37.4799C176.305 36.9799 176.205 36.3799 176.205 35.6799V30.4799H177.405V35.6799C177.405 36.1799 177.505 36.5799 177.705 36.9799C177.905 37.38 178.105 37.6799 178.505 37.8799C178.805 38.0799 179.205 38.1799 179.705 38.1799C180.205 38.1799 180.605 38.0799 180.905 37.8799C181.205 37.6799 181.505 37.38 181.705 36.9799C181.905 36.5799 182.005 36.1799 182.005 35.6799V30.4799H183.205V35.6799C183.205 36.3799 183.105 36.9799 182.805 37.4799C182.505 37.9799 182.105 38.3799 181.605 38.6799C180.905 39.0799 180.305 39.1799 179.605 39.1799ZM178.205 30.4799V30.9799C178.205 31.0799 178.205 31.0799 178.205 31.1799L178.105 31.2799L177.205 31.4799L177.105 30.5799H178.205V30.4799ZM182.205 30.4799L182.105 31.3799L181.205 31.1799C181.105 31.1799 181.105 31.1799 181.105 31.0799C181.105 31.0799 181.105 30.9799 181.105 30.8799V30.3799H182.205V30.4799ZM183.905 30.4799V30.9799C183.905 31.0799 183.905 31.0799 183.905 31.1799L183.805 31.2799L182.905 31.4799L182.805 30.5799H183.905V30.4799Z" fill="white"/>
<path d="M190.305 39.1799C190.005 39.1799 189.705 39.1799 189.405 39.0799C189.105 38.9799 188.805 38.9799 188.505 38.8799C188.205 38.7799 188.005 38.7799 187.905 38.6799V37.6799L188.805 37.8799C189.105 37.9799 189.405 38.0799 189.605 38.1799C189.805 38.1799 190.105 38.28 190.405 38.28C190.805 38.28 191.105 38.1799 191.305 38.0799C191.605 37.9799 191.805 37.7799 191.905 37.5799C192.005 37.3799 192.105 37.08 192.105 36.78C192.105 36.48 192.005 36.2799 191.905 36.0799C191.805 35.8799 191.605 35.7799 191.405 35.6799C191.205 35.5799 191.005 35.4799 190.705 35.3799C190.505 35.2799 190.205 35.1799 190.005 35.1799C189.705 35.0799 189.405 34.8799 189.005 34.7799C188.605 34.6799 188.405 34.3799 188.205 34.0799C188.005 33.7799 187.905 33.38 187.905 32.9799C187.905 32.5799 188.005 32.0799 188.205 31.6799C188.405 31.2799 188.705 30.9799 189.105 30.7799C189.505 30.5799 190.005 30.4799 190.505 30.4799C190.805 30.4799 191.205 30.4799 191.605 30.5799C192.005 30.6799 192.405 30.7799 192.805 30.9799V31.8799L191.905 31.6799C191.605 31.5799 191.405 31.5799 191.105 31.4799C190.805 31.4799 190.605 31.3799 190.405 31.3799C189.905 31.3799 189.505 31.4799 189.205 31.7799C188.905 31.9799 188.805 32.3799 188.805 32.6799C188.805 32.9799 188.905 33.2799 189.105 33.4799C189.305 33.6799 189.605 33.7799 189.905 33.8799C190.205 33.9799 190.505 34.0799 190.905 34.1799C191.305 34.2799 191.605 34.4799 191.905 34.6799C192.205 34.8799 192.505 35.0799 192.605 35.3799C192.805 35.6799 192.905 36.0799 192.905 36.4799C192.905 36.9799 192.805 37.4799 192.505 37.8799C192.305 38.2799 191.905 38.58 191.505 38.78C191.505 39.08 190.905 39.1799 190.305 39.1799ZM188.905 37.9799L187.905 37.6799V36.5799H188.405C188.505 36.5799 188.505 36.5799 188.605 36.5799L188.705 36.6799L188.905 37.9799ZM192.105 31.4799L193.105 31.7799V32.8799H192.605C192.505 32.8799 192.505 32.8799 192.405 32.8799L192.305 32.7799L192.105 31.4799Z" fill="white"/>
<path d="M198.505 30.4799L198.405 31.3799L197.505 31.1799C197.405 31.1799 197.405 31.1799 197.405 31.0799C197.405 31.0799 197.405 30.9799 197.405 30.8799V30.3799H198.505V30.4799ZM197.305 39.0799V38.5799C197.305 38.4799 197.305 38.4799 197.305 38.3799L197.405 38.28L198.305 38.0799L198.405 38.9799H197.305V39.0799ZM198.105 39.0799V30.4799H199.305V39.0799H198.105ZM200.205 30.4799V30.9799C200.205 31.0799 200.205 31.0799 200.205 31.1799L200.105 31.2799L199.205 31.4799L199.105 30.5799H200.205V30.4799ZM199.005 39.0799L199.105 38.1799L200.005 38.3799C200.105 38.3799 200.105 38.3799 200.105 38.4799C200.105 38.4799 200.105 38.5799 200.105 38.6799V39.1799H199.005V39.0799Z" fill="white"/>
<path d="M205.105 30.4799L205.005 31.3799L204.105 31.1799C204.005 31.1799 204.005 31.1799 204.005 31.0799C204.005 31.0799 204.005 30.9799 204.005 30.8799V30.3799H205.105V30.4799ZM207.705 39.0799L204.205 30.4799H205.105C205.205 30.4799 205.305 30.4799 205.405 30.5799C205.505 30.6799 205.505 30.6799 205.505 30.7799L207.905 36.78C208.005 36.88 208.005 37.0799 208.105 37.1799C208.205 37.2799 208.205 37.4799 208.205 37.6799C208.205 37.4799 208.305 37.3799 208.305 37.1799C208.305 36.9799 208.405 36.88 208.405 36.78L210.805 30.7799C210.805 30.6799 210.905 30.6799 210.905 30.5799C210.905 30.4799 211.105 30.4799 211.205 30.4799H212.105L208.605 39.0799H207.705ZM205.005 30.7799V30.4799H205.905V30.7799H205.005ZM206.705 30.4799V30.9799C206.705 31.0799 206.705 31.0799 206.705 31.1799L206.605 31.2799L205.705 31.4799L205.605 30.5799H206.705V30.4799ZM211.105 30.4799L211.005 31.3799L210.105 31.1799C210.005 31.1799 210.005 31.1799 210.005 31.0799C210.005 31.0799 210.005 30.9799 210.005 30.8799V30.3799H211.105V30.4799ZM210.705 30.7799V30.4799H211.605V30.7799H210.705ZM212.705 30.4799V30.9799C212.705 31.0799 212.705 31.0799 212.705 31.1799L212.605 31.2799L211.705 31.4799L211.605 30.5799H212.705V30.4799Z" fill="white"/>
<path d="M217.605 30.4799L217.505 31.3799L216.605 31.1799C216.505 31.1799 216.505 31.1799 216.505 31.0799C216.505 31.0799 216.505 30.9799 216.505 30.8799V30.3799H217.605V30.4799ZM216.405 39.0799V38.5799C216.405 38.4799 216.405 38.4799 216.405 38.3799L216.505 38.28L217.405 38.0799L217.505 38.9799H216.405V39.0799ZM217.205 39.0799V30.4799H222.505V31.3799H218.405V34.2799H221.605V35.1799H218.405V38.0799H222.505V38.9799H217.205V39.0799ZM221.505 31.1799L222.505 31.4799V32.5799H221.905C221.805 32.5799 221.805 32.5799 221.705 32.5799L221.605 32.4799L221.505 31.1799ZM221.505 38.4799L221.705 37.28C221.705 37.18 221.705 37.1799 221.805 37.1799C221.805 37.1799 221.905 37.1799 222.005 37.1799H222.505V38.28L221.505 38.4799Z" fill="white"/>
</g>
<defs>
<clipPath id="clip0_141_220">
<rect width="281.94" height="41.21" fill="white" transform="translate(0.505127 0.162537)"/>
</clipPath>
</defs>
</svg>
